<?xml version="1.0" encoding="utf-8"?>
<!-- Generator: Adobe Illustrator 27.5.0, SVG Export Plug-In . SVG Version: 6.00 Build 0)  -->
<svg version="1.1" xmlns="http://www.w3.org/2000/svg" xmlns:xlink="http://www.w3.org/1999/xlink" x="0px" y="0px"
	 viewBox="0 0 750 500" style="enable-background:new 0 0 750 500;" xml:space="preserve">
<g id="BACKGROUND">
	<rect y="0" style="fill:#000000;" width="750" height="500"/>
</g>
<g id="OBJECTS">
	<g>
		<defs>
			<rect id="SVGID_1_" y="0" width="750" height="500"/>
		</defs>
		<clipPath id="SVGID_00000153671372299013790550000017959763938277349784_">
			<use xlink:href="#SVGID_1_"  style="overflow:visible;"/>
		</clipPath>
		<path style="clip-path:url(#SVGID_00000153671372299013790550000017959763938277349784_);fill:#ECE7DC;" d="M413.449,422.049
			c-87.169-2.936-174.955,14.8-261.262,2.221c-32.484-4.735-66.445-15.069-87.301-40.419
			c-11.949-14.523-18.524-32.845-21.788-51.366c-3.513-19.936-3.412-40.503,0.296-60.404c4.484-24.066,17.653-45.613,20.754-69.351
			c2.736-20.941,16.628-36.342,36.169-44.417c19.097-7.892,40.292-8.447,60.933-9.407c20.641-0.96,41.975-2.632,60.191-12.386
			c28.703-15.369,44.955-48.234,73.929-63.088c24.3-12.458,53.417-10.121,80.211-4.856c26.795,5.265,53.665,13.189,80.876,10.903
			c15.74-1.322,31.118-6.052,46.909-6.423c25.275-0.593,50.577,10.723,66.984,29.958c12.82,15.03,21.318,35.236,39.264,43.494
			c10.985,5.055,23.649,4.604,35.349,7.662c23.403,6.117,41.198,26.08,50.821,48.272c18.508,42.683,14.662,89.636,9.047,134.557
			C692.535,482.072,509.501,425.284,413.449,422.049z"/>
		<g style="clip-path:url(#SVGID_00000153671372299013790550000017959763938277349784_);">
			<path style="fill:#121013;" d="M186.17,692.473c-5.383,1.222-11.055,1.965-15.708,4.935c-2.939,1.876-5.2,4.295-5.508,7.956
				c-0.074,0.875,0.031,1.879,0.724,2.418c0.533,0.414,1.262,0.435,1.937,0.438c5.161,0.02,10.197-0.626,15.406-0.626
				c9.327,0.081,18.656,0.437,27.981,0.244c17.036-0.352,14.483-1.042,15.495-3.423c0.728-1.714,0.558-3.658,0.376-5.511
				c-0.809-8.207-1.618-16.414-2.427-24.621c-0.697-7.067-1.718-14.811-6.959-19.601c-3.192-2.918-7.549-3.659-11.048-0.81
				c-3.285,2.674-3.379,7.8-3.262,11.779c0.118,4.004,0.671,8.032,0.107,11.998C202.021,686.516,194.158,690.66,186.17,692.473z"/>
			<path style="fill:#121013;" d="M93.637,692.473c-5.383,1.222-11.055,1.965-15.708,4.935c-2.939,1.876-5.2,4.295-5.508,7.956
				c-0.074,0.875,0.031,1.879,0.724,2.418c0.532,0.414,1.262,0.435,1.937,0.438c5.161,0.02,10.197-0.626,15.406-0.626
				c9.327,0.081,18.656,0.437,27.981,0.244c17.036-0.352,14.483-1.042,15.495-3.423c0.728-1.714,0.558-3.658,0.376-5.511
				c-0.809-8.207-1.618-16.414-2.427-24.621c-0.697-7.067-1.718-14.811-6.959-19.601c-3.192-2.918-7.549-3.659-11.048-0.81
				c-3.285,2.674-3.379,7.8-3.262,11.779c0.117,4.004,0.671,8.032,0.106,11.998C109.487,686.516,101.624,690.66,93.637,692.473z"/>
			<path style="fill:#6C78CB;" d="M164.35,367.44h-37.518c-8.414,21.846-8.384-1.526-14.463,21.089
				c-2.868,10.668-10.893,62.723-12.633,73.639c-1.763,11.055-2.729,22.227-3.27,33.404c-1.079,22.286-2.79,48.903-2.732,71.203
				c0.099,37.871,1.739,77.214,0.305,111.145c6.044,1.209,39.476,1.756,53.776-0.366c1.124-0.167,1.921-1.16,1.866-2.295
				c-0.975-20.386,6.146-196.088,9.842-216.636c4.834-26.881,12.106-29.702,8.819-56.874
				C166.994,390.606,167.847,378.314,164.35,367.44z"/>
			<path style="fill:#6C78CB;" d="M222.296,439.102c0.645-7.529,0.937-15.041-0.259-22.828
				c-1.657-10.785-5.621-21.211-11.549-30.373c-4.138-6.395-9.49-12.371-16.551-15.227c-6.546-2.648-14.145-2.317-20.629,0.479
				c-23.377,10.08-19.205,41.161-20.157,61.981c-0.738,16.127,6.622,63.481,8.407,80.092
				c6.904,64.234,18.113,111.542,22.204,165.627c7.016,0.301,14.416-0.315,21.469-0.774c7.718-0.502,22.049-1.32,29.481-3.444
				c2.242-0.815,0.105-28.885-0.018-32.126c-0.41-10.793-1.172-21.57-2.069-32.333c-1.838-22.067-4.318-44.08-5.759-66.179
				c-0.772-11.841-3.281-23.535-4.077-35.332c-1.129-16.739-3.126-33.169-2.214-50.036
				C220.935,451.987,221.745,445.539,222.296,439.102z"/>
			<path style="fill:none;stroke:#121013;stroke-linecap:round;stroke-linejoin:round;stroke-miterlimit:10;" d="M156.974,480.924
				c-0.931-28.254-1.618-32.281-2.549-60.535"/>
			<g>
				<path style="fill:#E79E8B;" d="M240.148,376.159c3.746,10.163,7.265,20.519,8.736,31.292c0.589,4.309,1.468,9.451,0.687,13.715
					c-0.963,5.254-3.799,10.747-5.583,15.793c-0.712,2.014-0.801,6.564,2.392,4.818c1.132-0.619,2.408-8.488,4.794-4.644
					c0.373,0.602,0.473,1.329,0.554,2.032c0.422,3.659,0.404,7.332,0.839,10.979c0.338,2.831,0.434,5.745,1.493,8.392
					c1.059,2.647,3.375,5.038,6.223,5.169c2.607,0.12,4.998-1.708,6.284-3.979c1.285-2.272,1.67-4.929,1.964-7.523
					c1.194-10.545,0.848-21.172,0.868-31.773c0.042-21.705-4.974-61.684-8.883-77.735c-2.754-11.307-6.114-22.466-10.067-33.411
					c-3.485-9.65-6.299-19.8-12.521-28.112c-4.04-5.397-9.443-9.959-15.86-12.027c-3.622-1.167-7.871-1.423-10.976,0.778
					c-2.978,2.111-4.18,5.948-4.628,9.57c-1.693,13.677,4.555,26.928,10.294,39.457c7.436,16.234,14.278,32.74,20.509,49.474
					C238.226,370.999,239.196,373.576,240.148,376.159z"/>
				<path style="fill:#E79E8B;" d="M84.484,144.405c-1.487,4.311-2.022,8.9-4.009,13.057c-0.791,1.654-1.742,3.235-2.401,4.946
					c-1.453,3.771-0.897,7.344-0.404,11.147c-7.662-0.674-15.193-2.082-22.667-3.817c0.597-12.512-0.743-25.029,0.049-37.617
					c0.223-2.174,0.207-4.244,0.541-6.426c0.272-1.771,0.576-3.623,1.657-5.052c1.958-2.59,2.513,0.507,2.327,2.122
					c-0.298,2.588-0.529,5.175-0.507,7.783c0.007,0.855,0.477,4.311-0.491,4.757c0.422-0.194,0.857-0.366,1.31-0.494
					c0.08-0.774,0.153-1.549,0.257-2.32c0.61-4.549,1.527-8.971,2.981-13.338c0.242-0.727,0.597-1.549,1.337-1.748
					c0.767-0.207,1.557,0.431,1.809,1.184c0.757,2.258-0.347,5.492-0.754,7.731c-0.416,2.289-0.835,4.566-1.108,6.878
					c-0.044,0.371-0.072,0.743-0.111,1.114c0.65,0.004,1.301,0.026,1.951,0.067c0.882-5.071,1.891-10.118,3.041-15.136
					c0.237-1.034,1.006-1.873,2.156-1.755c0.952,0.098,1.998,1.115,1.755,2.156c-1.169,5.006-2.214,10.04-3.138,15.097
					c0.779,0.104,1.569,0.24,2.309,0.481c0.519-4.323,1.353-8.632,2.273-12.876c0.2-0.921,1.619-2.938,2.634-1.628
					c0.372,0.481,0.384,1.141,0.366,1.749c-0.178,5.934-1.533,11.77-1.919,17.691c-0.123,1.883-1.159,3.883-0.249,5.65
					c0.888,1.724,2.685,2.441,3.528,0.262c0.938-2.429,1.789-5.035,3.252-7.211c0.639-0.951,2.497-3.808,3.536-1.402
					c0.355,0.823,0.089,1.771-0.22,2.613C85.041,141.527,84.99,142.939,84.484,144.405z"/>
				<path style="fill:#E79E8B;" d="M150.729,255.919c-10.41-4.837-41.379-18.712-51.789-23.548c-4.799-2.23-9.793-4.612-13.002-8.82
					c-5.991-7.857-6.349-21.189-6.95-30.654c-0.635-9.991-1.59-19.981-1.482-30.002c0.006-0.524,0.042-1.045,0.057-1.569
					c-6.976,0.875-13.976,1.432-21.024,1.288c-1.48,6.364-3.191,12.701-4.195,19.158c-1.973,12.692-2.845,25.661-1.835,38.485
					c1.086,13.799,2.823,28.587,11.974,38.972c3.803,4.316,8.654,7.561,13.531,10.612c9.757,6.105,19.868,11.646,30.263,16.586
					c3.678,1.748,7.392,3.421,11.138,5.017c5.027,2.142,10.298,4.18,15.759,3.983c8.91-0.321,17.626-9.643,19.726-17.924
					C156.777,262.207,162.686,261.474,150.729,255.919z"/>
				<path style="fill:#B66754;" d="M150.729,255.919c-8.13-3.777-31.457-14.354-45.125-20.568c-0.216,2.981-0.989,5.941-2.009,8.729
					c-2.981,8.147-8.093,16.257-15.014,21.609c-3.089,2.389-6.588,4.287-10.287,5.533c9.054,5.553,18.39,10.646,27.983,15.204
					c3.678,1.748,7.391,3.421,11.138,5.017c5.027,2.142,10.298,4.18,15.759,3.983c8.91-0.321,17.626-9.643,19.726-17.924
					C156.777,262.207,162.686,261.474,150.729,255.919z"/>
				<path style="fill:#D9C468;" d="M160.096,254.485c-0.216-2.072-0.577-4.089-1.084-6.019c-0.34-1.295-0.7-2.631-1.533-3.681
					c-1.881-2.371-5.372-2.47-8.399-2.464c-7.284,0.014-32.792-6.677-37.666-7.439c-1.153,2.508-2.272,5.033-3.365,7.568
					c-5.474,12.69-13.316,26.099-16.31,39.53c10.283,5.714,20.453,11.732,30.887,17.164c7.2,3.749,14.992,1.008,21.426-3.714
					C157.243,285.747,160.096,269.699,160.096,254.485z"/>
				<path style="fill:#D9C468;" d="M193.126,429.143c-29.098-0.293-64.556,0.61-93.501-2.382
					c1.982-22.071,9.966-71.505,12.259-93.548c1.094-10.517,2.255-21.03,3.645-31.512c0.992-7.483,3.841-16.007,3.841-23.495
					c1.667-7.363,4.176-14.65,8.507-20.833c5.576-7.96,13.08-12.409,22.66-13.106c5.924-0.432,11.86-0.68,17.794-0.929
					c3.97-0.166,8.042-0.319,11.815,0.927c6.036,1.994,10.387,7.252,13.737,12.655c9.365,15.108,14.256,33.858,17.471,51.198
					c5.843,31.511,16.164,89.969,18.897,121.829C221.397,430.109,201.983,429.232,193.126,429.143z"/>
				<path style="fill:#D9C468;" d="M238.004,307.736c5.642-1.791,11.284-3.582,16.925-5.373
					c-6.987-17.017-4.182-35.882-18.158-47.843c-8.214-7.03-30.186-9.984-40.835-12.036c-6.758-1.303-22.859-2.883-28.145,2.581
					c-7.498,7.75,4.84,15.73,8.441,21.405c3.757,5.92,6.519,12.785,8.807,19.385c1.8,5.191,5.983,9.708,8.724,14.527
					c3.397,5.971,6.366,12.185,8.876,18.58C214.428,315.22,226.216,311.478,238.004,307.736z"/>
				<path style="fill:#E79E8B;" d="M177.435,246.528c-2.048,2.497-4.612,4.579-7.603,5.839c-5.119,2.158-11.505,1.6-15.663-2.084
					c-0.857-0.759-1.622-1.652-2.058-2.711c-0.498-1.21-0.536-2.555-0.493-3.863c0.139-4.29,0.661-8.329,0.686-12.638
					c0.002-0.346-0.011-0.726-0.271-0.967c-0.247-0.229-0.643-0.262-1.005-0.299c-17.012,0-9.959-26.388-8.886-35.515
					c0.231-1.965,0.548-4.106,2.003-5.446c1.751-1.613,4.429-1.454,6.809-1.398c4.465,0.105,8.938-0.502,13.39-0.151
					c7.487,0.59,15.721,5.582,16.958,13.555c0.382,2.464,0.08,5.005-0.22,7.517c-1.077,8.997-2.159,18.105-1.372,27.174
					c0.378,4.347,1.304,6.142-1.432,9.897C178.007,245.81,177.726,246.173,177.435,246.528z"/>
				<path style="fill:#121013;" d="M182.538,195.025c-1.306-8.041-10.453-16.59-18.93-15.121c-2.209,0.383-4.247,1.406-6.364,2.143
					c-2.333,0.813-4.785,1.282-7.253,1.388c-4.066,0.175-8.68,0.344-10.64,4.592c-0.947,2.053-0.877,4.547,0.184,6.543
					c0.2,0.377,0.473,0.766,0.887,0.868c0.302,0.074,0.617-0.021,0.918-0.101c1.384-0.37,2.848-0.442,4.262-0.208
					c1.07,0.177,2.107,0.526,3.177,0.706c1.925,0.324,3.896,0.092,5.846,0.186c6.715,0.323,4.595,5.956,9.291,8.331
					c1.423,0.719,2.037,0.004,3.059,1.76c1.875,3.225,0.188,7.585,1.714,11.134c1.162,2.7,6.005,8.303,9.336,7.956
					c4.822-0.502,3.006-12.346,3.308-15.671c0.427-4.703,1.904-9.383,1.27-14.062C182.584,195.321,182.561,195.173,182.538,195.025z
					"/>
				<path style="fill:#E79E8B;" d="M170.602,202.24c-2.838-1.019-6.317,0.629-7.587,3.31c-1.723,3.638-0.6,9.362,4.231,9.467
					c2.13,0.046,4.136-0.722,5.694-2.164c1.6-1.48,1.88-3.91,1.433-5.997c-0.38-1.775-1.473-3.427-3.065-4.298
					C171.079,202.432,170.843,202.326,170.602,202.24z"/>
				<path style="fill:#FFFFFF;" d="M141.965,214.452c-0.207,1.742,0.924,3.684,2.563,4.698c1.639,1.013,3.671,1.134,5.277,0.495
					c1.605-0.639,2.796-1.973,3.458-3.546L141.965,214.452z"/>
				<g>
					<defs>
						<path id="SVGID_00000055682661079724172070000017295337723648361377_" d="M177.849,247.258
							c-0.613,0.878-1.396,1.723-2.393,2.529c-2.416,1.955-5.472,3.015-8.56,3.369c-3.633,0.417-7.509-0.168-10.46-2.328
							c-5.72-4.186-4.167-13.538-4.132-19.755c0.002-0.346-0.011-0.726-0.271-0.967c-0.247-0.229-0.643-0.262-1.005-0.299
							c-9.084-0.908-12.1-9.906-11.362-17.056c0.6-5.822,2.503-11.641,4.771-17.198c0.529-1.297,1.136-2.626,2.248-3.606
							c1.843-1.623,7.778-3.675,10.262-4.568c4.639-1.667,9.074-0.418,13.265,1.22c5.605,2.191,10.219,6.631,11.09,12.252
							c0.382,2.464,0.08,5.005-0.22,7.518c-0.941,7.87-1.881,15.797-1.58,23.738C179.71,237.64,180.91,242.871,177.849,247.258z"/>
					</defs>
					<clipPath id="SVGID_00000134957562859270986350000013371615951604453266_">
						<use xlink:href="#SVGID_00000055682661079724172070000017295337723648361377_"  style="overflow:visible;"/>
					</clipPath>
					<path style="clip-path:url(#SVGID_00000134957562859270986350000013371615951604453266_);fill:#B66754;" d="M158.206,226.84
						c0.491-0.344,1.005-0.657,1.536-0.936c0.725-0.38,1.611-0.695,2.337-0.317c0.889,0.463,1.022,1.707,0.75,2.672
						c-1.065,3.788-5.444,5.352-8.946,5.904c-1.118,0.176-3.507,0.487-4.316-0.588c-1.115-1.482,1.286-3.659,2.612-3.89
						c0.947-0.165,1.95-0.074,2.84-0.435c0.773-0.313,1.372-0.932,2-1.481C157.399,227.439,157.795,227.128,158.206,226.84z"/>
				</g>
				<g>
					<defs>
						<path id="SVGID_00000060032438214219936010000013076225792496707514_" d="M189.277,366.102
							c-12.654,0.628-25.322,0.954-37.99,1.139c-6.477,0.095-12.955,0.15-19.433,0.186c-5.531,0.031-11.137,0.67-16.644,0.472
							c-0.563-0.02-1.194-0.084-1.555-0.517c-0.378-0.454-0.273-1.116-0.207-1.704c11.696-103.856-1.123-59.895,5.445-88.907
							c1.667-7.363,4.176-14.65,8.507-20.833c5.576-7.96,13.08-12.408,22.66-13.107c5.924-0.431,11.86-0.68,17.794-0.928
							c3.969-0.166,8.042-0.319,11.815,0.927c6.036,1.994,10.387,7.251,13.737,12.655c9.365,15.108,14.256,33.858,17.471,51.197
							c3.521,18.986,5.368,38.283,5.512,57.592C207.363,365.066,198.324,365.658,189.277,366.102z"/>
					</defs>
					<clipPath id="SVGID_00000114780256649087845820000003455930416737611649_">
						<use xlink:href="#SVGID_00000060032438214219936010000013076225792496707514_"  style="overflow:visible;"/>
					</clipPath>
				</g>
				<path style="fill:none;stroke:#121013;stroke-linecap:round;stroke-linejoin:round;stroke-miterlimit:10;" d="M213.857,315.625
					c-2.518-6.543-5.036-13.086-7.554-19.63"/>
				<path style="fill:none;stroke:#121013;stroke-linecap:round;stroke-linejoin:round;stroke-miterlimit:10;" d="M250.962,322.578
					c1.449,2.326,2.43,4.942,2.867,7.646"/>
				<path style="fill:none;stroke:#121013;stroke-linecap:round;stroke-linejoin:round;stroke-miterlimit:10;" d="M169.294,205.606
					c-1.87,0.239-3.51,1.743-3.91,3.586"/>
				<path style="fill:none;stroke:#121013;stroke-linecap:round;stroke-linejoin:round;stroke-miterlimit:10;" d="M116.562,296.322
					c2.122-2.174,3.917-4.667,5.304-7.37"/>
			</g>
			<path style="fill:#121013;" d="M199.508,292.497c3.011,1.056,6.022,2.112,9.034,3.169c0.029,0.06,0.06,0.12,0.091,0.179
				c0.01,0.343,2.076,9.548,2.782,13.591c-6.633-2.973-12.298-9.576-13.993-16.644C197.757,292.094,198.779,292.241,199.508,292.497
				z"/>
			<path style="fill:none;stroke:#121013;stroke-linecap:round;stroke-linejoin:round;stroke-miterlimit:10;" d="M196.8,565.043
				c-2.812,0.416-5.804-0.712-7.642-2.88"/>
			<path style="fill:none;stroke:#121013;stroke-linecap:round;stroke-linejoin:round;stroke-miterlimit:10;" d="M126.069,559.3
				c-2.867,0-5.735,0-8.602,0"/>
			<path style="fill:#AD8B50;" d="M103.301,270.212c6.343-2.73,12.498-5.849,18.635-9.007c5.556-2.859,11.05-5.901,16.136-9.545
				c1.171-0.839,2.329-1.718,3.455-2.641c2.094-2.027,3.95-4.271,5.427-6.824c-9.178-0.912-31.061-6.612-35.539-7.312
				c-1.153,2.508-2.272,5.033-3.365,7.568c-4.385,10.166-10.282,20.795-13.997,31.526
				C97.154,272.768,100.243,271.528,103.301,270.212z"/>
			<path style="fill:#AD8B50;" d="M236.772,254.52c-8.214-7.031-30.186-9.984-40.835-12.036c-0.685-0.132-1.472-0.266-2.328-0.396
				c1.369,1.845,2.725,3.699,4.054,5.574c4.391,6.198,8.556,12.543,12.604,18.962c0.578,0.799,1.161,1.595,1.729,2.402
				c4.09,5.803,7.506,12.002,10.884,18.239c0.191,0.352,0.378,0.706,0.566,1.06c0.257,0.435,0.515,0.871,0.772,1.306
				c4.473,3.095,9.271,5.727,14.273,7.849c5.194,2.205,10.576,3.85,16.061,5.004l0.379-0.12
				C247.943,285.346,250.748,266.481,236.772,254.52z"/>
			<path style="fill:#AD8B50;" d="M159.169,296.795c-0.163,0.137-0.357,0.247-0.613,0.274
				c-11.518,1.201-21.116,11.876-22.536,23.131c-0.644,5.106,0.487,10.361,3.641,14.482c2.893,3.78,7.119,6.251,11.711,7.357
				c9.433,2.273,19.512-0.862,26.294-7.666c3.98-3.993,7.303-8.895,8.326-14.526c0.792-4.356-0.09-8.858-2.448-12.6
				C178.444,299.152,168.342,296.178,159.169,296.795z"/>
			<path style="fill:#AD8B50;" d="M167.063,419.117c-13.243-0.827-26.477-1.054-39.738-1.419
				c-8.859-0.244-17.738-0.661-26.547-1.659c-0.479,4.004-0.877,7.637-1.154,10.721c28.946,2.992,64.403,2.088,93.501,2.382
				c8.857,0.089,28.271,0.966,37.126,0.804c-0.277-3.223-0.634-6.729-1.053-10.441C208.508,420.665,187.75,420.409,167.063,419.117z
				"/>
			<path style="fill:none;stroke:#121013;stroke-linecap:round;stroke-linejoin:round;stroke-miterlimit:10;" d="M78.493,147.578
				c-1.896,0.907-3.631,2.148-5.102,3.648"/>
			<path style="fill:none;stroke:#121013;stroke-linecap:round;stroke-linejoin:round;stroke-miterlimit:10;" d="M73.664,135.46
				c-2.596-1.009-5.445-1.23-8.223-1.028c-2.778,0.202-5.508,0.812-8.226,1.42"/>
			<path style="fill:none;stroke:#121013;stroke-linecap:round;stroke-linejoin:round;stroke-miterlimit:10;" d="M147.882,201.73
				c-0.874,2.014-1.747,4.027-2.621,6.04c-0.305,0.703-0.615,1.487-0.372,2.214c0.243,0.727,1.342,1.142,1.788,0.519"/>
		</g>
		<g style="clip-path:url(#SVGID_00000153671372299013790550000017959763938277349784_);">
			<path style="fill:#9D5B34;" d="M385.996,206.66c-8.399,9.318-20.203,9.665-30.324,15.557c-9.539,5.553-10.28,19.278-6.844,29.928
				c3.119,9.669,12.059,17.868,22.219,17.833c3.914-0.014,7.73-1.189,11.387-2.581c24.083-9.167,44.847-29.246,54.053-53.445
				c9.844-25.876,7.553-56.702,8.582-83.985c0.135-3.591,0.271-7.186,0.696-10.754c0.522-4.382,1.476-8.698,2.311-13.031
				c1.461-7.583,2.559-15.234,3.334-22.917c0.115-1.136,0.431-3.489-0.772-4.24c-0.557-0.348-1.337,0-1.682,0.559
				c-0.379,0.613-0.624,1.45-0.81,2.345c-0.278,1.336-0.424,2.801-0.688,3.845c-0.4,1.579-0.724,3.174-1.061,4.767
				c-0.22,1.039-0.712,2.504-1.478,3.284c-0.428,0.437-1.202,0.599-1.645,0.178c-0.346-0.329-0.371-0.866-0.341-1.343
				c0.145-2.33,1.227-4.489,1.587-6.756c0.41-2.581,1.002-5.117,1.3-7.722c0.09-0.785,0.164-1.597-0.066-2.354
				c-0.23-0.757-0.839-1.452-1.624-1.544c-0.564-0.066-1.135,0.191-1.534,0.595c-0.632,0.639-0.849,1.568-1.039,2.446
				c-0.601,2.771-1.202,5.543-1.803,8.314c-0.301,1.386-0.601,2.771-0.902,4.157c-0.21,0.972-0.349,2.149-1.304,2.718
				c-1.408,0.839-1.561-1.272-1.445-2.058c0.545-3.703,0.945-7.395,1.388-11.083c0.169-1.408,0.636-2.778,0.665-4.205
				c0.025-1.251-0.725-3.162-2.326-2.806c-0.725,0.161-1.286,0.766-1.59,1.443c-0.303,0.678-0.388,1.43-0.47,2.167
				c-0.394,4.741-0.717,9.746-2.018,14.323c-0.199,0.7-0.302,1.671-0.778,2.24c-0.259,0.31-0.697,0.508-1.076,0.366
				c-0.46-0.172-0.626-0.726-0.719-1.208c-0.81-4.21-0.665-8.548-0.255-12.816c0.072-0.746,0.149-1.519-0.089-2.231
				c-0.238-0.711-0.886-1.345-1.635-1.308c-2.301,0.115-2.444,4.274-2.478,5.821c-0.064,2.908-0.192,5.815-0.384,8.717
				c-0.183,2.763,0.439,7.553-1.189,9.917c-0.84,1.22-2.816,1.756-3.804,0.652c-0.428-0.478-0.575-1.137-0.708-1.765
				c-0.481-2.282-0.604-6.345-2.107-8.227c-0.337-0.421-0.83-0.757-1.37-0.752c-0.711,0.007-1.305,0.612-1.531,1.286
				c-0.458,1.364,0.235,3.092,0.393,4.48c0.227,1.992,0.475,3.983,0.824,5.957c1.475,8.334,5.482,13.312,4.577,21.738
				c-2.232,20.783-14.147,41.983-21.607,61.32C394.786,192.347,391.638,200.401,385.996,206.66z"/>
			<path style="fill:none;stroke:#1A2732;stroke-linecap:round;stroke-linejoin:round;stroke-miterlimit:10;" d="M445.877,95.02
				c-5.54-2.285-11.828-2.711-17.626-1.196"/>
			<path d="M235.535,411.436c1.557-9.016,13.177-46.857,19.438-53.528c4.294-4.576,10.195-7.234,15.931-9.778
				c8.987-3.986,18.129-8.017,27.875-9.306c13.845-1.831,28.267,2.206,39.504,10.498c12.218,9.016,19.722,21.723,22.444,36.34
				c1.539,8.261,4.685,16.118,5.954,24.534c1.23,8.156,1.857,16.388,2.376,24.615c1.18,18.683,0.693,37.456,2.328,56.104
				c0.561,6.4,1.372,12.78,1.702,19.196c0.163,3.17,0.12,6.629-1.839,9.126c-1.079,1.376-2.625,2.295-4.164,3.124
				c-18.783,10.115-40.931,11.024-62.32,11.407c-0.009-2.255,0.036-4.511,0.069-6.766c0.193-13.14-0.422-26.064,0.303-39.079
				c0.522-9.373-2.335-18.587-2.571-27.905c-0.215-8.491-0.584-16.988-0.494-25.479c0.015-1.38-0.194-3.102-1.495-3.563
				c-3.171-1.125-2.989,3.518-2.982,5.163c0.014,3.391-0.87,6.801-1.276,10.191c-0.907,7.581-1.178,15.219-1.813,22.824
				c-0.683,8.19-2.131,16.263-2.512,24.471c-0.392,8.448-0.645,16.904-0.738,25.36c-0.037,3.165,1.173,9.991-0.904,12.248
				c-1.555,1.69-6.783,2.111-9.087,2.562c-6.259,1.227-11.938,0.245-18.201,0.056c-13.803-0.418-32.467,3.977-32.699-15.236
				C229.816,473.128,227.79,456.266,235.535,411.436z"/>
			<g>
				<path style="fill:#5A3870;" d="M278.687,235.335c-0.001,0.247-0.056,0.492-0.144,0.723c-0.126-0.083-0.259-0.156-0.393-0.228
					L278.687,235.335z"/>
				<path style="fill:#48181E;" d="M198.465,337.116c0.013,0.891,0.035,1.782,0.065,2.672c0.516,15.203,22.969,10.229,32.058,6.888
					c3.197-1.175,6.407-2.633,9.49-4.361c2.221-20.258,4.731-39.873,13.744-58.674c5.453-11.374,13.795-21.532,18.292-33.302
					c0.3-0.785,0.562-1.585,0.777-2.403c0.858-3.264,0.809-7.073-1.4-9.625c-3.5-4.045-10.011-2.781-14.971-0.777
					c-28.787,11.636-47.582,37.798-54.614,67.455c-1.429,6.025-2.399,12.156-2.941,18.324c-0.509,5.792-1.64,13.186-0.119,18.861
					c0.439,1.639,1.36,3.216,2.811,4.094"/>
				<path style="fill:#B9BECC;" d="M250.192,316.033c-14.402-5.665-41.533-16.199-55.398-23.083
					c8.025-9.854,29.901-44.445,40.538-51.294c2.963-1.908,6.01-3.525,9.173-5.059c14.549-7.057,31.078-11.089,47.293-10.289
					c1.21,0.06,2.428,0.204,3.593,0.461c-1.127,5.455-4.894,11.01-8.127,15.436c-2.498,3.42-5.252,6.667-8.052,9.833
					c-4.505,5.096-8.666,10.498-13.059,15.69C264.68,269.471,254.253,311.692,250.192,316.033z"/>
			</g>
			<path style="fill:#B9BECC;" d="M255.12,265.873c3.203-9.654,7.914-29.547,15.993-36.217c6.552-5.408,18.298-3.572,26.429-3.429
				c13.001,0.23,25.7,4.011,35.924,12.208c28.749,23.048,32.056,68.107,33.036,102.033c0.423,14.632,0.386,29.327,0.647,43.978
				c-20.597-3.688-40.976-3.969-61.815-4.208c-5.344-0.061-63.625-0.805-63.648-1.885c-0.458-20.905,2.512-40.834,5.134-61.457
				C249.018,299.596,249.484,282.861,255.12,265.873z"/>
			<g>
				<path style="fill:#5A3870;" d="M327.64,235.335c0.001,0.247,0.056,0.492,0.144,0.723c0.126-0.083,0.259-0.156,0.393-0.228
					L327.64,235.335z"/>
				<path style="fill:#B9BECC;" d="M388.816,247.299c-5.266-11.684-10.611-23.331-16.192-34.869
					c-9.604,2.756-61.195,16.73-61.689,14.34c1.127,5.455,4.894,11.01,8.127,15.436c2.498,3.42,5.252,6.667,8.052,9.833
					c4.505,5.096,8.666,10.498,13.059,15.691c6.226,7.36,0.807,18.224,11.592,16.738c1.116-0.154,2.405-0.44,3.898-0.875
					c13.958-4.071,27.446-9.729,40.162-16.779C393.4,260.343,391.115,253.818,388.816,247.299z"/>
			</g>
			<g>
				<path style="fill:#9D5B34;" d="M316.121,193.207c0.176-3.6,0.084-7.223-0.772-10.747c-0.993-4.09-2.508-6.727-5.756-9.387
					c-3.003-2.46-6.642-4.183-10.513-4.659c-11.525-1.418-19.07,8.277-20.209,18.857c-0.461,4.284-0.906,8.631-0.419,12.934
					c0.405,3.579,2.217,6.226,3.956,9.355c0.401,0.722,0.807,1.455,1,2.258c0.172,0.715,0.169,1.459,0.165,2.195
					c-0.012,2.265,0.257,4.523,0.033,6.786c-0.108,1.093-0.311,2.226-0.835,3.204c-0.635,1.185-1.832,1.713-3.049,2.124
					c-0.179,0.06-0.361,0.116-0.533,0.19c0.7,0.368,1.283,1.176,1.837,1.752c0.707,0.735,1.4,1.483,2.096,2.227
					c0.672,0.719,1.343,1.441,2.034,2.142c0.386,0.391,0.795,0.892,1.283,1.163c2.721,1.513,6.313,2.525,9.403,2.851
					c4.831,0.51,9.726-0.744,14.101-2.858c1.066-0.515,8.386-5.087,6.284-6.769c-0.184-0.147-0.43-0.182-0.659-0.235
					c-1.298-0.299-2.333-1.323-2.963-2.496c-0.63-1.173-0.915-2.496-1.191-3.798c-0.378-1.781-0.757-3.561-1.136-5.342
					c-0.749-3.522,1.257-5.572,2.753-8.518c1.622-3.194,2.608-6.709,2.894-10.28C316.005,195.176,316.073,194.193,316.121,193.207z"
					/>
				<path d="M278.158,192.312c-1.058,0.322-2.092-0.182-2.578-2.223c-0.922-3.874-0.087-8.955,0.58-12.844
					c0.267-1.555,0.673-3.249,1.947-4.18c0.305-0.223,0.657-0.393,1.033-0.431c0.858-0.088,1.754,0.022,2.554-0.045
					c1.031-0.086,1.645-0.706,2.707,0.054c0.964,0.69,1.394,1.939,1.41,3.124c0.016,1.186-0.317,2.344-0.596,3.496
					c-0.581,2.405-0.93,4.866-1.041,7.338c-0.018,0.398-0.035,0.815-0.234,1.161c-0.508,0.879-1.824,0.808-2.674,0.612
					C280.985,190.036,279.55,191.889,278.158,192.312z"/>
				<path d="M315.776,195.123c-0.929-0.07-1.802-0.814-2.142-2.19c-0.519-2.1,0.121-5.163-1.03-6.936
					c-0.262-0.403-0.614-0.74-0.901-1.126c-1.405-1.89-1.018-4.517-1.544-6.813c-0.31-1.355-0.949-2.608-1.438-3.909
					c-0.489-1.301-0.832-2.721-0.52-4.075c0.823-3.569,4.2-2.347,6.201-0.567c3.198,2.845,4.996,7.417,5.506,11.592
					C320.235,183.773,320.16,195.452,315.776,195.123z"/>
				<g>
					<path style="fill:#9D5B34;" d="M281.507,196.43c-1.447,1.208-4.4,0.808-5.686-0.417c-0.901-0.859-1.43-2.034-1.834-3.212
						c-0.388-1.132-0.685-2.324-0.587-3.517c0.307-3.756,4.135-7.134,7.816-4.785c3.264,2.082,3.327,6.123,1.972,9.41
						C282.802,194.845,282.27,195.792,281.507,196.43z"/>
					<path style="fill:none;stroke:#000000;stroke-linecap:round;stroke-linejoin:round;stroke-miterlimit:10;" d="M278.621,194.97"
						/>
					<path style="fill:none;stroke:#000000;stroke-linecap:round;stroke-linejoin:round;stroke-miterlimit:10;" d="M275.108,193.367
						"/>
				</g>
				<path style="fill:#9D5B34;" d="M311.492,189.635c-0.219-2.266,0.374-4.581,2.639-5.6c1.389-0.625,3.095-0.489,4.367,0.35
					c1.332,0.878,2.12,2.424,2.364,4.001c0.243,1.576-0.005,3.189-0.392,4.737c-0.186,0.742-0.418,1.503-0.925,2.077
					c-1.273,1.439-4.237,1.857-5.643,0.7C312.279,194.565,311.681,191.594,311.492,189.635z"/>
				<path style="fill:none;stroke:#DC8A72;stroke-linecap:round;stroke-linejoin:round;stroke-miterlimit:10;" d="M294.793,171.814
					c0.123-1.733,0.714-3.431,1.694-4.866"/>
				<path d="M312.271,175.638c-0.178,0.041-0.363,0.077-0.556,0.107c-2.312,0.356-4.644-0.508-6.693-1.638
					c-0.781-0.431-1.554-0.909-2.42-1.123c-0.905-0.224-1.853-0.145-2.782-0.065c-3.912,0.337-8.022,0.668-11.747,1.964
					c-2.31,0.436-6.65,1.442-8.451-0.735c-1.748-2.114-0.278-6.159,1.174-8.028c1.511-1.945,3.669-3.287,5.903-4.323
					c4.543-2.108,9.622-3.107,14.613-2.687c4.455,0.375,9.274,2.178,12.229,5.661C316.362,168.095,317.608,174.4,312.271,175.638z"
					/>
			</g>
			<path style="fill:#FFFFFF;" d="M303.82,203.111c-1.913,2.359-5.056,3.659-8.077,3.341c-3.02-0.317-5.824-2.243-7.205-4.947"/>
			<g>
				<defs>
					<path id="SVGID_00000021797782368467805850000003008707575207463582_" d="M316.121,193.207
						c1.638-3.159,1.706-6.734-0.772-10.747c-2.212-3.581-2.508-6.727-5.756-9.387c-3.003-2.46-6.642-4.183-10.513-4.659
						c-11.525-1.418-19.07,8.277-20.209,18.857c-0.461,4.284-0.906,8.631-0.419,12.934c0.405,3.579,2.217,6.226,3.956,9.355
						c0.401,0.722,0.807,1.455,1,2.258c0.172,0.715,0.169,1.459,0.165,2.195c-0.016,3.155-0.042,6.337-0.59,9.453
						c-0.193,1.098-0.219,2.397-0.6,3.429c-0.125,0.339-1.874,2.985-2.271,2.719c4.796,3.219,9.986,6.232,15.731,6.839
						c4.831,0.51,9.726-0.744,14.101-2.858c2.401-1.16,4.786-2.693,6.005-5.064c0.092-0.178,0.178-0.375,0.146-0.573
						c-0.046-0.274-0.298-0.455-0.521-0.62c-2.361-1.745-2.789-4.434-3.433-7.104c-0.403-1.672-0.68-3.354-0.97-5.036
						c-0.221-1.285-0.988-2.758-0.741-4.073c0.131-0.699,0.561-1.297,0.958-1.887c2.603-3.874,4.164-8.432,4.536-13.081
						C316.005,195.176,315.667,194.083,316.121,193.207z"/>
				</defs>
				<clipPath id="SVGID_00000090259604978929726420000014459606369292220092_">
					<use xlink:href="#SVGID_00000021797782368467805850000003008707575207463582_"  style="overflow:visible;"/>
				</clipPath>
				<path style="clip-path:url(#SVGID_00000090259604978929726420000014459606369292220092_);fill:#48181E;" d="M283.046,211.01
					c1.281,1.238,2.647,2.524,4.375,2.958c1.243,0.313,2.547,0.15,3.828,0.091c2.301-0.105,4.655,0.145,6.764,1.069
					c-0.176,0.591-0.735,0.993-1.314,1.204c-0.579,0.211-1.202,0.274-1.794,0.446c-0.708,0.206-1.36,0.564-2.042,0.843
					c-3.164,1.293-6.755,0.808-10.093,0.069c-0.527-0.117-1.156-0.344-1.24-0.877"/>
			</g>
			<path style="fill:none;stroke:#1A2732;stroke-linecap:round;stroke-linejoin:round;stroke-miterlimit:10;" d="M247.553,316.239
				c3.825-11.592,7.65-23.184,11.475-34.775"/>
			<path style="fill:none;stroke:#000000;stroke-linecap:round;stroke-linejoin:round;stroke-miterlimit:10;" d="M296.448,185.536
				c0.55,2.868,1.1,5.737,1.65,8.606c0.116,0.607,0.233,1.224,0.181,1.84c-0.052,0.616-0.296,1.242-0.783,1.624
				c-0.487,0.381-1.242,0.446-1.712,0.045"/>
			<path style="fill:#9D5B34;" d="M198.322,328.644c0.548-2.592,1.561-5.012,3.394-6.901c4.669-4.81,10.402-5.897,16.883-5.458
				c2.376,0.161,4.781,0.38,7.016,1.201c2.643,0.97,4.928,2.743,6.885,4.768c5.076,5.253,6.789,11.213,8.402,18.075
				c1.086,4.619,1.732,9.331,2.945,13.922c3.337,12.631,8.173,25.027,11.127,37.785c-0.759,1.614-1.529,3.224-2.344,4.811
				c-3.85,7.505-8.954,13.976-14.767,19.795c-11.97-13.296-22.286-28.079-30.58-43.931c-6.3-12.041-9.689-23.774-9.57-37.448
				C197.731,333.075,197.866,330.8,198.322,328.644z"/>
			<path style="fill:none;stroke:#1A2732;stroke-linecap:round;stroke-linejoin:round;stroke-miterlimit:10;" d="M257.168,386.862
				c-3.174,10.01-9.599,18.613-15.913,27.005c-1.578,2.097-3.283,4.294-5.73,5.243"/>
			<path style="fill:none;stroke:#000000;stroke-linecap:round;stroke-linejoin:round;stroke-miterlimit:10;" d="M317.245,185.918
				c-2.233,0.633-3.878,2.916-3.773,5.234"/>
			<path style="fill:none;stroke:#000000;stroke-linecap:round;stroke-linejoin:round;stroke-miterlimit:10;" d="M278.375,187.588
				c0.439,0.196,0.909,0.327,1.32,0.576c1.173,0.713,1.578,2.442,0.844,3.602"/>
		</g>
		<g style="clip-path:url(#SVGID_00000153671372299013790550000017959763938277349784_);">
			<g id="XMLID_333_">
				<g id="XMLID_335_">
					<g id="XMLID_336_">
						<g id="XMLID_337_">
							<path id="XMLID_338_" style="fill:#D79280;" d="M518.439,598.43c4.79,0.963,13.842,0.499,18.353-1.245
								c-0.926-34.55-1.852-69.1-2.778-103.65c-0.518-19.337-1.039-38.705-3.315-57.914c-1.36-11.472-3.385-23.035-7.682-33.812
								c-2.623-6.578-7.518-19.602-14.54-22.922c-22.051-10.423-38.977-10.486-37.581,1.605
								c2.692,23.319,10.934,33.894,15.423,81.758c2.829,30.16,20.154,104.649,23.457,134.765
								C509.833,597.543,514.675,597.659,518.439,598.43z"/>
						</g>
					</g>
				</g>
			</g>
			<path d="M512.47,586.194c-1.429,0.103-2.857,0.2-4.287,0.292c-0.152,5.532-5.798,9.035-10.704,11.597
				c-8.676,4.53-17.202,9.348-25.558,14.444c-1.072,0.654-2.192,1.365-2.769,2.481c-3.48,6.729,12.926,3.417,15.505,3.236
				c20.813-1.463,55.476-4.234,55.315-6.173c-0.788-9.491-2.116-18.708-2.75-28.246C528.991,584.808,520.738,585.598,512.47,586.194
				z"/>
			<g id="XMLID_328_">
				<g id="XMLID_329_">
					<g id="XMLID_330_">
						<g id="XMLID_331_">
							<path id="XMLID_332_" style="fill:#D79280;" d="M433.339,598.713c1.236,0.326,14.299,0.039,14.294,0.145
								c2.072-4.647,6.361-37.827,7.521-56.109c1.477-23.282,4.106-43.322,4.472-66.646c0.327-20.787-0.186-42.263-9.133-61.246
								c-2.308-4.897-5.288-9.709-9.86-12.873s-11.035-4.334-15.967-1.702c-6.833,3.647-8.007,12.347-8.305,19.772
								c-2.395,59.589,5.618,117.513,8.435,176.77C424.821,597.353,429.638,597.736,433.339,598.713z"/>
						</g>
					</g>
				</g>
			</g>
			<path style="fill:#97AFBD;" d="M471.96,470.024c-2.504-17.55-5.008-35.1-7.512-52.65c-0.742-5.198-1.625-10.525-2.418-15.899
				c-1.445-9.789-2.592-19.734-2.044-29.335c0.739-12.927,0.263-26.349,3.61-39.066c1.192-4.528,2.985-9.184,6.665-12.079
				c5.946-4.678,14.69-0.1,20.721,2.487c6.469,2.775,12.149,6.982,16.658,12.389c9.345,11.205,13.392,25.961,17.643,39.624
				c2.17,6.973,4.19,13.993,6.061,21.053c3.584,13.528,6.616,27.202,9.085,40.977c4.126,23.023,6.895,45.932,6.224,69.432
				c-0.039,1.371-0.144,2.88-1.103,3.86c-1.011,1.034-2.617,1.124-4.062,1.157c-9.477,0.213-18.946,0.74-28.388,1.578
				c-7.77,0.691-20.792,7.311-28.269,3.971C473.708,512.543,473.464,480.562,471.96,470.024z"/>
			<path style="fill:#97AFBD;" d="M406.687,453.689c-0.23-7.932-0.256-15.877,0.252-23.853c1.651-25.909,3.716-54.07,15.013-77.829
				c1.933-4.066,4.175-8.081,7.449-11.172c5.478-5.173,13.32-7.204,20.855-7.208c4.563-0.003,9.21,0.695,13.275,2.767
				c2.868,1.462,6.201,4.005,7.5,7.07c1.222,2.883,0.304,5.297-0.13,8.383c-1.247,8.864-3.989,18.744-3.111,27.648
				c0.928,9.408,1.516,18.785,1.613,28.243c0.367,35.846,0.51,71.056-3.63,106.782c-4.776-3.281-11.157-1.96-16.935-1.514
				c-13.93,1.076-28.268-3.735-41.72,0.038C409.102,493.133,407.26,473.449,406.687,453.689z"/>
			<path d="M460.09,197.534c-5.926-0.468-12.216-4.119-15.87-7.893c-2.869-2.962-6.065-8.373-6.511-12.516
				c-0.201-1.868,0.123-3.746,0.375-5.608c0.485-3.583,0.711-7.225,1.716-10.698c1.004-3.473,2.907-6.85,5.98-8.755
				c4.348-2.696,9.021-0.438,13.37,0.968c4.664,1.508,9.41,3.056,13.403,5.899c3.993,2.843,7.186,7.239,7.35,12.138
				c0.061,1.808-0.288,3.61-0.231,5.418c0.04,1.263,0.274,2.545-0.013,3.776c-0.208,0.892-0.679,1.698-1.155,2.48
				c-1.562,2.565-3.255,5.049-5.072,7.441c-1.674,2.204-3.5,4.372-5.875,5.793C465.32,197.315,462.742,197.743,460.09,197.534z"/>
			<path style="fill:#6C78CB;" d="M504.282,365.83c-3.659-0.188-7.463-0.723-11.165-0.775c-12.929-0.183-25.697,2.536-38.523,4.179
				c-20.252,2.593-52.542,7.988-58.707-17.751c-1.797-7.505-1.243-15.347-0.678-23.043c1.729-23.56,3.56-47.569,12.455-69.453
				c10.119-24.892,30.774-46.284,58.533-48.945c5.909-0.567,11.692-0.068,17.586-0.008c3.477,0.036,6.953,0.078,10.429,0.126
				c0.301,0.004,0.616,0.012,0.881,0.156c0.252,0.136,0.426,0.378,0.591,0.612c0.616,0.87,1.28,2.324,2.138,2.957
				c0.666,0.49,1.722,0.679,2.487,1.017c2.013,0.892,3.97,1.915,5.837,3.083c1.812,1.133,3.541,2.402,5.145,3.814
				c1.301,1.145,3.507,2.806,4.214,4.423c6.636,8.382,7.812,19.717,8.577,30.381c2.111,29.447,3.879,58.945,0.821,88.368
				c-0.428,4.117-0.945,8.326-2.813,12.019C517.91,365.256,511.37,366.194,504.282,365.83z"/>
			<path style="fill:#D79280;" d="M441.194,169.338c0.807-2.102,1.812-4.168,3.323-5.837c6.591-7.284,21.375-7.368,27.429,0.447
				c4.091,5.282,3.986,12.958,3.769,19.305c-0.074,2.161-0.099,4.308-0.086,6.448c0.022,3.479,0.145,6.956,0.322,10.43
				c0.091,1.789,0.197,3.577,0.31,5.365c0.048,0.759,0.088,1.54,0.221,2.288c0.137,0.77,0.607,1.361,0.839,2.095
				c0.233,0.739,0.102,1.542-0.085,2.294c-0.339,1.357-0.862,3.355-1.869,4.383c-0.92,0.939-2.327,1.576-3.505,2.119
				c-1.359,0.626-2.718,1.253-4.077,1.879c-0.548,0.253-1.099,0.506-1.681,0.663c-0.595,0.161-1.213,0.218-1.809,0.375
				c-0.655,0.172-1.279,0.464-1.95,0.56c-0.511,0.073-1.031,0.03-1.542-0.041c-2.08-0.289-4.135-1.093-5.755-2.447
				c-0.69-0.577-1.629-1.429-1.916-2.311c-0.332-1.019-0.352-2.268-0.492-3.332c-0.481-3.643-0.615-7.32-1.034-10.97
				c-0.058-0.509-0.128-1.033-0.389-1.473c-0.433-0.731-1.228-1.001-2-1.215c-0.688-0.19-1.349-0.494-1.967-0.86
				c-1.443-0.853-2.548-2.285-3.564-3.586c-2.22-2.842-3.696-6.256-4.363-9.793C438.268,180.522,439.151,174.663,441.194,169.338z"
				/>
			<g>
				<path style="fill:#D79280;" d="M469.876,181.517c0,3.389,2.747,6.136,6.136,6.136c3.389,0,6.137-2.747,6.137-6.136
					c0-3.389-2.748-6.136-6.137-6.136C472.624,175.381,469.876,178.128,469.876,181.517z"/>
				<path style="fill:none;stroke:#1A2732;stroke-linecap:round;stroke-linejoin:round;stroke-miterlimit:10;" d="M474.973,178.74
					c1.365,0.139,2.606,1.133,3.037,2.436c0.431,1.302,0.03,2.841-0.982,3.767"/>
			</g>
			<g>
				<defs>
					<path id="SVGID_00000127043576433426328450000004762099066631703722_" d="M475.629,189.701
						c-0.013-2.14,0.012-4.287,0.086-6.448c0.237-6.925,0.189-14.014-3.301-20.205c-3.526-6.257-9.841-7.86-16.876-6.765
						c-6.039,0.94-8.447,3.034-10.383,8.367c-2.454,6.757-3.69,12.935-3.667,20.177c0.01,3.513,0.183,7.144,1.717,10.306
						c1.534,3.161,5.149,5.782,8.652,5.521c-0.75,6.083-1.436,15.612,5.073,18.157c5.851,2.287,18.474,1.973,19.594-6.299
						c0.137-1.01,0.068-2.036,0-3.053C476.072,202.8,475.67,196.284,475.629,189.701z"/>
				</defs>
				<clipPath id="SVGID_00000119119509515994806210000004246361904974062470_">
					<use xlink:href="#SVGID_00000127043576433426328450000004762099066631703722_"  style="overflow:visible;"/>
				</clipPath>
				<path style="clip-path:url(#SVGID_00000119119509515994806210000004246361904974062470_);" d="M447.053,205.91
					c1.835,0.671,3.875-0.044,5.614-0.935c2.7-1.384,5.257-3.314,6.615-6.028c-2.44,1.2-5.156,1.834-7.874,1.839
					c-1.021,0.001-2.039-0.084-3.056-0.169c-1.411-0.119-2.821-0.237-4.232-0.355"/>
			</g>
			<path d="M473.943,154.906c-0.888-1.411-1.85-2.775-2.847-4.087c-0.936-1.232-2.067-2.515-3.598-2.731
				c-1.53-0.216-2.954,1.146-2.603,2.653c-0.674-1.961-2.559-5.172-4.098-6.488c-1.279-1.094-3.186-1.55-4.699-0.814
				c-1.513,0.736-2.322,2.815-1.429,4.242c-0.732-1.254-1.492-2.54-2.641-3.426c-1.149-0.887-2.797-1.288-4.072-0.594
				c-1.841,1.003-1.995,3.599-1.515,5.64c-0.278-1.186-2.93-2.532-3.974-2.856c-1.676-0.52-3,0.776-3.378,2.435
				c-0.33,1.45,0.144,3.008,1.039,4.196c-1.055-0.766-2.689-0.399-3.466,0.647c-0.778,1.047-0.731,2.571-0.056,3.686
				c0.675,1.115,1.887,1.838,3.159,2.122c-1.259,1.382-1.957,3.262-1.904,5.131c0.031,1.109,0.446,2.362,1.479,2.767
				s2.19-0.233,2.961-1.031c0.921-0.954,1.431-1.671,2.603-2.213c1.142-0.529,2.596-1.004,3.365-2.128
				c-0.559,0.817-0.126,2.044,0.729,2.542c0.855,0.497,1.961,0.376,2.848-0.062c0.887-0.439,1.602-1.153,2.299-1.854
				c-0.639,1.596,1.092,3.372,2.81,3.32c1.718-0.052,3.158-1.343,4.113-2.771c-0.784,1.313,0.482,3.078,1.982,3.38
				c1.5,0.302,3.006-0.363,4.392-1.012c-0.389,0.579-0.356,1.409,0.079,1.955c0.434,0.546,1.235,0.766,1.887,0.517
				c-1.42,2.065-1.957,4.716-1.452,7.171c0.186,0.905,0.523,1.809,1.16,2.479c1.621,1.705,2.951,0.696,3.918-0.74
				c1.197-1.779,2.738-1.329,4.649-1.877c1.784-0.511,1.366-3.242,1.363-4.758C479.033,164.774,476.887,159.58,473.943,154.906z"/>
			<path style="fill:none;stroke:#1A2732;stroke-linecap:round;stroke-linejoin:round;stroke-miterlimit:10;" d="M412.927,378.545
				c-2.291-15.004,2.221-30.082,4.932-45.016c1.372-7.557,2.288-15.189,3.202-22.815c1.944-16.208,0.386-33.771,0.06-50.249"/>
			<path d="M421.923,590.055c-3.055,6.24-10.133,10.726-16.452,12.77c-9.145,2.957-18.162,6.413-27.194,9.715
				c-0.964,0.352-2.022,0.789-2.447,1.723c-0.463,1.014,0.051,2.264,0.913,2.97c0.862,0.706,1.989,0.986,3.083,1.199
				c5.656,1.099,70.98-0.88,70.99-2.672c0.007-9.977,0.013-19.953,0.02-29.93c-7.442,0.361-14.885,0.721-22.327,1.082
				c-1.851,0.09-3.787,0.164-5.467-0.62C422.903,587.6,422.51,588.856,421.923,590.055z"/>
			<path style="fill:none;stroke:#1A2732;stroke-linecap:round;stroke-linejoin:round;stroke-miterlimit:10;" d="M469.462,455.498
				c-0.288-5.392-0.807-10.758-1.198-16.141c-0.438-6.016-2.035-11.123-3.295-17.053c-2.846-13.394-2.791-27.443-7.759-40.351"/>
			<path d="M437.997,182.987c0.337,2.727,0.674,5.455,1.01,8.182c0.788,6.383,3.876,12.521,10.565,14.344
				c2.856,0.778,5.821,0.292,8.635-0.424c2.36-0.6,4.746-1.382,6.845-2.641c2.265-1.358,4.054-3.259,5.111-5.688
				c0.568-1.306,0.943-2.67,1.397-4.017c0.431-1.277,1.099-2.394,1.667-3.607c1.224-2.616,0.443-4.607,0.23-7.24
				c-0.201-2.482-0.486-5.062,1.076-7.135c0.383-0.508,0.809-1.021,0.935-1.645c0.196-0.973-0.427-1.971-1.277-2.484
				c-0.85-0.513-1.877-0.631-2.869-0.654c-0.778-0.018-1.615,0.035-2.227,0.514c-0.419,0.327-0.68,0.818-0.851,1.321
				c-0.747,2.2,0.043,4.498-0.001,6.74c-0.036,1.815-0.146,3.687-0.772,5.408c-1.26,3.464-4.109,5.406-7.828,5.027
				c-1.51-0.154-2.841-1.008-4.223-1.637c-3.201-1.457-6.928-1.693-10.307-0.741c-4.66,1.313-4.661,1.316-4.927-3.729
				c-0.127-2.397-0.063-4.8,0.052-7.195c0.09-1.869-0.128-3.984,0.429-5.761c0.184-0.588,0.396-1.196,0.307-1.806
				c-0.089-0.61-0.602-1.21-1.216-1.152c-0.407,0.038-0.745,0.354-0.924,0.721c-0.18,0.367-0.229,0.781-0.276,1.187
				C437.997,173.691,437.4,178.148,437.997,182.987z"/>
			<path style="fill:none;stroke:#1A2732;stroke-linecap:round;stroke-linejoin:round;stroke-miterlimit:10;" d="M450.747,172.305
				c-0.018,2.154-1.005,4.162-1.605,6.231c-0.171,0.588-0.307,1.237-0.059,1.796c0.408,0.921,1.599,1.135,2.605,1.199"/>
			<path style="fill:none;stroke:#1A2732;stroke-linecap:round;stroke-linejoin:round;stroke-miterlimit:10;" d="M501.116,372.283
				c2.776,7.51,9.523,13.418,17.333,15.18"/>
			<path style="fill:#D79280;" d="M539.447,113.264c-0.249-0.043-0.502-0.013-0.722,0.116c-1.293,0.759,0.379,7.309,0.413,8.732
				c0.016,0.646,0.266,2.387-0.367,2.857c-1.081,0.803-1.708-0.517-1.806-1.405c-0.415-3.803-0.831-7.605-1.246-11.408
				c-0.092-0.846-0.192-2.075-0.98-2.56c-0.54-0.333-1.282-0.299-1.789,0.082c-0.888,0.667-0.842,1.99-0.709,3.092
				c0.433,3.576,0.866,7.153,1.299,10.73c0.131,1.083,0.219,3.182-1.535,3.017c-0.876-0.083-1.243-1.14-1.409-2.004
				c-0.656-3.406-1.435-6.758-2.176-10.121c-0.268-1.218-0.422-4.409-1.427-5.178c-0.324-0.248-0.749-0.319-1.157-0.335
				c-0.279-0.012-0.569,0.001-0.82,0.122c-0.555,0.267-0.747,0.967-0.747,1.583c0,1.961,0.446,3.759,0.948,5.648
				c0.823,3.096,1.335,6.274,1.525,9.472c0.083,1.396-0.372,5.022-2.141,3.101c-0.919-0.998-1.09-2.802-1.559-4.037
				c-1.021-2.681-2.044-5.36-3.067-8.04c-0.697-1.827-3.534-0.914-2.9,0.958c1.11,3.277,2.129,6.585,3.053,9.919
				c0.685,2.473,2.695,6.473,1.994,9.04c-0.362,1.324-1.926,2.398-3.128,1.734c-0.52-0.287-0.851-0.819-1.159-1.327
				c-1.119-1.849-2.47-5.366-4.359-6.552c-0.423-0.266-0.958-0.408-1.428-0.239c-0.62,0.223-0.954,0.934-0.946,1.594
				c0.017,1.333,1.151,2.633,1.714,3.799c0.808,1.673,1.634,3.339,2.543,4.959c1.749,3.115,3.805,6.097,6.478,8.495
				c1.369,1.228,2.894,2.302,4.053,3.729c2.25,2.773,2.798,6.199,3.602,9.542c0.455,1.893,0.91,3.785,1.365,5.678
				c0.622,2.587,1.281,5.255,2.884,7.378c1.603,2.123,4.418,3.571,6.953,2.766c1.54-0.489,2.758-1.737,3.494-3.176
				c0.735-1.439,1.035-3.061,1.188-4.669c0.77-8.102-1.962-16.206-1.428-24.327c0.674-10.239-0.366-20.705-2.911-30.646
				c-0.148-0.577-0.315-1.174-0.71-1.619C540.102,113.508,539.779,113.321,539.447,113.264z"/>
			<path style="fill:#6C78CB;" d="M572.714,218.915c-3.029-18.774-7.886-37.265-14.511-55.089
				c-2.656-7.144-3.228-9.424-5.705-10.239c-1.032,0.164-2.065,0.326-3.099,0.484c-3.422,0.524-6.86,1.026-10.299,1.548
				c-6.442,1.704-12.91,3.309-19.388,4.874c-0.331,1.763,0.465,4.234,1.161,9.193c2.544,18.127,4.925,36.278,7.388,54.417
				c0.861,6.343,1.745,12.77,4.212,18.677c2.467,5.907,6.745,11.333,12.659,13.784c8.975,3.72,20.178-0.764,25.107-9.136
				C575.182,239.032,574.266,228.533,572.714,218.915z"/>
			<path style="fill:#6C78CB;" d="M485.874,210.584c-3.691,0.367-7.865,1.162-9.811,4.321c-0.888,1.442-1.156,3.171-1.346,4.854
				c-1.615,14.353-11.812,38.969,6.656,46.528c6.266,2.565,13.355,1.474,20.031,0.343c15.822-2.681,31.643-5.362,47.465-8.042
				c3.999-0.678,8.065-1.377,11.69-3.197c5.815-2.92,10.063-8.771,11.039-15.205C577.023,204.418,506.16,208.566,485.874,210.584z"
				/>
			<path style="fill:none;stroke:#1A2732;stroke-linecap:round;stroke-linejoin:round;stroke-miterlimit:10;" d="M477.531,209.956
				c-0.53,2.685-1.167,5.565-3.196,7.401c-0.776,0.702-1.709,1.202-2.642,1.675c-3.169,1.607-6.577,3.01-10.13,2.962
				c-5.141-0.069-10.354-4.553-9.516-10.069"/>
			<path style="fill:none;stroke:#1A2732;stroke-linecap:round;stroke-linejoin:round;stroke-miterlimit:10;" d="M525.333,211.109
				c5.718,1.138,11.161,3.638,15.749,7.235"/>
			<path style="fill:none;stroke:#1A2732;stroke-linecap:round;stroke-linejoin:round;stroke-miterlimit:10;" d="M524.543,130.508
				c5.234-2.078,10.657-3.679,16.18-4.777"/>
			<path style="fill:none;stroke:#1A2732;stroke-linecap:round;stroke-linejoin:round;stroke-miterlimit:10;" d="M520.999,138.411
				c1.605-0.041,3.162,1.132,3.564,2.687"/>
		</g>
		<g style="clip-path:url(#SVGID_00000153671372299013790550000017959763938277349784_);">
			<g>
				<path style="fill:#894D2F;" d="M697.485,227.717c-0.113-1.596-0.314-3.189-0.798-4.711c-0.309-0.971-0.796-1.976-1.704-2.437
					c-1.057-0.536-2.24,0.115-2.545,1.211c-0.392-0.839-0.787-1.917-1.948-1.762c-0.609,0.081-1.138,0.588-1.245,1.193
					c-0.145-0.798-1.182-1.19-1.931-0.88c-0.75,0.31-1.2,1.102-1.369,1.895c0.187-0.876-2.027-0.274-2.274-0.09
					c-0.674,0.501-1.169,1.724-1.354,2.531c-0.563,2.461-0.767,5.34-1.061,7.865c-0.271,2.322,0.391,6.233-1.383,8.088
					c-2.766,2.893-3.436-5.456-4.144-7.078c-0.281-0.645-0.643-1.283-1.212-1.697c-0.569-0.413-1.389-0.547-1.977-0.161
					c-1.142,0.751-0.045,3.877,0.027,5.012c0.104,1.643,0.226,3.286,0.432,4.92c0.396,3.141,1.088,6.275,2.482,9.135
					c0.714,1.464,1.607,2.855,2.081,4.414c0.921,3.027,0.227,6.022-0.229,9.035c-0.258,1.706-0.516,3.411-0.775,5.117
					c-0.283,1.868-0.569,3.169,0.436,4.818c0.833,1.366,1.901,2.478,3.412,3.089c1.854,0.75,4.044,0.614,5.79-0.361
					c1.288-0.719,2.308-1.847,3.115-3.082c1.431-2.192,2.235-4.723,3.023-7.219c1.998-6.329,4-12.7,4.999-19.278
					c0.932-6.138,0.538-12.386,0.213-18.558C697.529,228.388,697.509,228.052,697.485,227.717z"/>
				<path style="fill:none;stroke:#000000;stroke-linecap:round;stroke-linejoin:round;stroke-miterlimit:10;" d="M685.854,221.901
					c0.727,5.739,0.391,11.61-0.986,17.228"/>
				<path style="fill:none;stroke:#000000;stroke-linecap:round;stroke-linejoin:round;stroke-miterlimit:10;" d="M689.088,221.023
					c1.084,5.522,1.092,11.254,0.023,16.779"/>
				<path style="fill:none;stroke:#000000;stroke-linecap:round;stroke-linejoin:round;stroke-miterlimit:10;" d="M692.594,221.56
					c1.102,5.762,1.196,11.716,0.277,17.51"/>
				<path style="fill:none;stroke:#000000;stroke-linecap:round;stroke-linejoin:round;stroke-miterlimit:10;" d="M694.88,240.326
					c-3.605-2.222-8.433-2.287-12.097-0.164"/>
			</g>
			<path d="M603.98,238.357c5.633-0.373,11.248-1.019,16.818-1.94c3.986-0.659,8.168-1.564,11.14-4.3
				c2.972-2.736,4.069-7.901,1.241-10.786c-1.845-1.882-4.711-2.276-6.959-3.652c-5.342-3.269-2.941-8.489-4.932-13.152
				c-2.028-4.751-7.416-8.6-11.881-10.775c-9.464-4.61-21.772-4.33-29.607,3.315c-3.495,3.411-5.793,7.961-9.575,11.051
				c-4.355,3.559-10.152,4.766-15.006,7.607c-4.854,2.841-8.937,8.843-6.443,13.884c1.894,3.829,6.592,5.191,10.787,5.998
				C574.169,238.42,589.138,239.339,603.98,238.357z"/>
			<path style="fill:#BD6A75;" d="M642.157,311.489c4.626,6.243,10.025,12.019,16.76,17.879c2.724,2.371,6.109,4.872,9.604,3.96
				c2.771-0.723,4.617-3.508,5.081-6.333c0.465-2.825-0.187-5.704-0.893-8.479c-3.911-15.367-10.401-26.931-19.538-39.619
				c-7.34-10.192-14.397-22.33-25.465-29.044c-4.809-2.917-10.286-4.503-15.692-6.059c1.84,0.529,4.257,8.879,4.873,10.632
				c1.204,3.422,1.292,6.708,2.16,10.109c2.068,8.1,6.303,15.947,9.728,23.533C632.794,296.969,636.994,304.52,642.157,311.489z"/>
			<path style="fill:#894D2F;" d="M547.212,506.023c-0.117,16.632-0.105,33.264,0.036,49.896c0.036,4.19,3.914,67.43,3.171,67.576
				c5.284-1.039,15.126,0.795,19.547-1.295c5.512-2.607,3.769-4.145,6.554-9.804c5.958-12.104,10.109-21.914,12.101-35.563
				c4.26-29.195,8.519-58.391,12.779-87.586c3.485-23.888,6.977-48.112,4.103-72.082c-1.036-8.645-17.603-13.141-24.371-12.166
				c-9.143,1.317-17.037,7.66-21.89,15.519c-4.854,7.859-6.992,17.108-8.008,26.29C549.034,466.674,547.353,486.01,547.212,506.023z
				"/>
			<path style="fill:#894D2F;" d="M611.704,443.998c-0.243-2.161-0.486-4.321-0.729-6.482c-0.96-8.531-1.638-18.094,3.782-24.752
				c6.862-8.43,23.352-8.607,32.928-5.267c8.522,2.972,9.517,6.464,11.626,15.227c4.163,17.299,5.555,35.529,7.216,53.195
				c2.055,21.868,24.864,145.007-18.791,137.698c-3.808-0.638-7.173-2.933-9.835-5.73c-8.447-8.876-10.233-21.983-11.603-34.159
				C621.433,530.484,616.569,487.241,611.704,443.998z"/>
			<path style="fill:#D9C468;" d="M665.512,397.866c-2.5-10.519-5.074-21.033-8.318-31.352c-2.486-7.909-5.39-15.699-8.958-23.176
				c-0.534-0.566-1.087-1.103-1.652-1.626c6.219-5.429-3.729-20.988-6.582-26.081c-8.981-16.034-15.26-33.404-22.28-50.388
				c-2.761-6.68-5.681-13.38-10.004-19.173c-1.19-1.595-2.587-3.186-4.484-3.787c-7.965-2.52-14.834,1.947-20.718,6.877
				c-2.284,1.913-4.583,3.842-6.467,6.149c-6.252,7.656-7.109,18.289-7.047,28.173c0.116,18.601,2.516,37.101,3.97,55.645
				c0.098,1.25,0.195,2.509,0.312,3.765c-21.776,9.942-28.313,38.243-31.912,60.83c-1.772,11.126-3.084,22.326-3.93,33.56
				c-0.758,10.067-2.24,21.229-1.108,31.29c0.44,3.906-1.377,5.701,2.712,8.006c2.035,1.147,7.922-1.026,8.177-0.839
				c12.652,9.254,31.592,8.652,43.631-1.387c12,11.413,34.476,8.143,42.726-6.217c8.621,11.758,30.288,21.711,40.25,6.291
				c6.333-9.803,1.175-25.476-0.458-36.157C671.298,424.703,668.685,411.22,665.512,397.866z"/>
			<path style="fill:#BD6A75;" d="M643.671,296.795c8.336,21.793,15.936,44.101,20.431,67.029c0.195,0.994,0.407,2.035,1.055,2.813
				c0.648,0.778,1.883,1.169,2.695,0.564c-0.99,0.738-0.393,5.875-0.197,7.046c0.441,2.634,0.953,5.277,1.542,7.889
				c1.236,5.48,2.408,10.974,3.516,16.48c0.134,0.667,0.267,1.333,0.398,2.001c0.703,3.575-1.832,6.976-5.457,7.337
				c-0.283,0.028-0.566,0.053-0.85,0.074c-9.182,0.681-18.356-2.461-26.45-6.567c-7.233-3.67-13.256-9.005-17.193-16.15
				c-2.323-4.215-3.871-8.853-5.218-13.459l-0.016-0.054c-0.915-3.122-1.483-6.334-1.71-9.58
				c-0.973-13.866-2.168-27.717-3.627-41.556c-0.862-8.18-1.8-16.326-3.018-24.464c-1.224-8.175-2.569-16.333-3.745-24.515
				c-1.157-8.051-0.417-10.712-0.905-18.834c-0.131-2.179-1.987-9.801-2.09-11.993C628.63,242.213,636.151,277.135,643.671,296.795z
				"/>
			<path style="fill:#BD6A75;" d="M602.433,385.644c-4.427,12.956-12.702,24.78-24.811,30.904
				c-4.966,2.512-10.391,3.988-15.838,5.126c-6.734,1.406-14.538,2.059-19.731-2.452c-5.713-4.963-5.59-13.742-4.707-21.258
				c3.244-27.602,12.13-53.344,14.345-81.031c1.708-21.357-2.186-42.161,7.252-61.361c3.905-7.945,16.115-11.836,27.874-13.57
				c5.179-0.764,9.851,3.153,10.031,8.385c0.558,16.269,2.022,32.507,3.919,48.676c3.126,26.639,9.899,52.947,3.621,79.766
				C603.852,381.118,603.201,383.398,602.433,385.644z"/>
			<path style="fill:#894D2F;" d="M526.321,345.708c0.628,1.504,1.356,2.972,2.131,4.405c2.697,4.986,5.981,9.626,9.256,14.252
				c4.286,6.054,8.573,12.107,12.859,18.161c0.382,0.539,0.798,1.106,1.413,1.349c0.787,0.31,1.673,0.005,2.438-0.356
				c6.647-3.137,9.016-10.195,11.008-16.757c0.041-0.136,0.082-0.281,0.046-0.419c-0.043-0.161-0.182-0.276-0.314-0.378
				c-1.175-0.903-2.455-1.669-3.806-2.277c-3.38-1.523-5.442-2.493-7.731-5.385c-3.218-4.066-4.923-9.148-7.491-13.643
				c-2.644-4.628-5.787-9.031-9.855-12.518c-2.047-1.755-4.667-3.337-7.293-2.725c-2.011,0.469-3.566,2.197-4.248,4.146
				c-0.682,1.949-0.602,4.088-0.241,6.121C524.862,341.755,525.508,343.762,526.321,345.708z"/>
			<path style="fill:#BD6A75;" d="M580.739,243.985c-3.956,0.313-7.874,0.902-11.555,2.338c-2.49,0.971-4.818,2.313-7.261,3.399
				c-7.073,3.145-14.716,4.627-21.591,8.248c-7.424,3.91-14.742,8.754-21.041,14.298c-8.745,7.697-15.805,18.053-16.854,29.656
				c-0.756,8.357,1.637,16.7,4.894,24.433c4.24,10.068,10.001,19.492,17.008,27.873c2.25,2.691,3.302,4.643,6.986,5.472
				c8.109,1.824,27.249-2.728,24.333-14.033c-4.135-16.03-9.514-31.74-16.074-46.94c10.924-3.863,21.214-9.298,31.458-14.713
				c6.252-3.305,12.616-6.692,17.549-11.76c2.973-3.053,5.362-6.672,7.003-10.605c1.416-3.393,2.99-9.146,1.773-12.806
				c-1.645-4.949-6.704-5.379-11.16-5.174C584.39,243.754,582.561,243.84,580.739,243.985z"/>
			<g>
				<path d="M576.496,215.928c-0.852-2.237,1.883-6.39,3.089-8.159c3.198-4.692,5.995-11.239,12.145-12.3
					c5.127-0.884,11.768-0.275,16.159,2.809c4.078,2.864,8.135,4.87,5.637,10.473c-0.902,2.024-2.395,3.732-4.059,5.185
					c-4.093,3.575-9.327,5.75-14.712,6.359c-5.384,0.609-10.902-0.32-15.895-2.439C577.898,217.449,576.87,216.909,576.496,215.928z
					"/>
				<path style="fill:#894D2F;" d="M610.027,235.232c-0.185,3.451-0.682,7.644,2.795,9.713c-0.821,2.385-2.765,4.285-5.033,5.389
					c-2.268,1.104-4.839,1.47-7.361,1.429c-4.649-0.076-9.444-1.629-12.592-5.05c0.266,0.289,1.201-1.628,1.248-1.798
					c0.244-0.888,0-1.76,0.042-2.656c0.079-1.694,0.32-3.339,0.333-5.055c0.037-4.751,0.144-9.503,0.469-14.244
					c1.684-2.91,6.131-4.953,9.08-5.551c6.534-1.325,10.697,3.503,11.218,8.935c0.025,0.36,0.044,0.72,0.057,1.081
					c0.003,0.561-0.029,1.124-0.105,1.684C609.884,231.273,609.967,233.212,610.027,235.232z"/>
				<path style="fill:#894D2F;" d="M613.669,214.419c0.274-0.055,0.557-0.085,0.847-0.086c2.351-0.001,4.259,1.905,4.26,4.259
					c0.001,2.354-1.903,4.263-4.255,4.264c-0.467,0-0.915-0.077-1.335-0.216C613.342,219.9,613.489,217.159,613.669,214.419z"/>
				<g>
					<defs>
						<path id="SVGID_00000093142890600446919710000009674748207743750031_" d="M589.118,234.759
							c-0.073,4.501-0.951,9.176-3.676,12.744c9.267,4.085,20.267,3.971,29.449-0.305c-3.901-2.982-5.177-8.416-4.794-13.333
							c0.153-1.973,0.528-3.932,0.529-5.911c0.003-4.056-3.078-9.148-7.073-10.466c-1.632-0.538-3.41-0.419-5.094-0.078
							c-2.563,0.52-5.087,1.586-6.922,3.462C587.873,224.615,589.194,230.068,589.118,234.759z"/>
					</defs>
					<clipPath id="SVGID_00000158708174911785871530000014961782560131680151_">
						<use xlink:href="#SVGID_00000093142890600446919710000009674748207743750031_"  style="overflow:visible;"/>
					</clipPath>
					<path style="clip-path:url(#SVGID_00000158708174911785871530000014961782560131680151_);fill:#48181E;" d="M589.666,230.008
						c4.607,0.904,8.982,2.062,13.711,1.375c1.49-0.216,4.934-1.161,6.925-2.295c-0.023,2.87-0.311,5.752-0.376,8.618
						c-5.516,0.895-11.197,1.412-15.912-1.405c-2.138-1.277-4.496-3.793-4.344-6.132L589.666,230.008z"/>
				</g>
				<path style="fill:#894D2F;" d="M614.65,219.554c-0.25,3.243-0.834,6.504-2.216,9.444c-1.382,2.94-3.626,5.552-6.56,6.913
					c-5.375,2.494-12.105,0.175-15.977-4.332c-3.872-4.507-5.282-10.705-5.33-16.665c-0.034-4.208,0.599-8.571,2.866-12.107
					c2.331-3.636,6.355-6.118,10.631-6.556c4.387-0.45,10.62,1.521,13.2,5.418C614.587,206.69,615.098,213.731,614.65,219.554z"/>
				<path style="fill:#894D2F;" d="M580.088,218.618c0.002,2.353,1.909,4.26,4.26,4.258c2.351-0.001,4.256-1.911,4.255-4.264
					c-0.002-2.354-1.909-4.26-4.26-4.258C581.991,214.356,580.086,216.265,580.088,218.618z"/>
				<path style="fill:none;stroke:#000000;stroke-linecap:round;stroke-linejoin:round;stroke-miterlimit:10;" d="M582.984,216.237
					c1.114-0.329,2.355,0.424,2.823,1.495c0.468,1.07,0.279,2.34-0.237,3.388"/>
				<path d="M594.371,207.779c-0.588,0.86-1.317,1.623-2.255,2.053c-1.049,0.481-2.379,0.574-3.054,1.511
					c-0.264,0.366-0.383,0.814-0.498,1.25c-0.27,1.031-0.54,2.063-0.811,3.094c-0.759-0.568-1.649-0.973-2.578-1.163
					c-0.801-0.165-1.525,0.081-2.324-0.135c-1.55-0.418-3.652-2.299-3.686-3.915c-0.026-1.212,0.76-2.267,1.458-3.255
					c1.626-2.301,2.966-4.797,4.593-7.096c1.627-2.3,3.599-4.443,6.115-5.69c1.098-0.545,3.567-1.592,4.766-1.482
					c0.957,0.088,1.871,0.465,2.829,0.538c0.874,0.067,1.748-0.123,2.625-0.114c3.036,0.029,6.538,2.722,8.871,4.481
					c2.557,1.927,5.112,3.989,6.773,6.725c1.004,1.654,1.537,3.442,1.572,5.358c0.009,0.532-0.33,5.018-0.133,5.102
					c-0.768-0.328-1.589-0.533-2.42-0.609c-0.6-0.055-1.373,0.133-1.856-0.301c-0.468-0.42-0.635-1.465-0.967-2.017
					c-0.429-0.715-0.968-1.364-1.596-1.913c-1.393-1.217-3.17-1.923-4.58-3.121c-1.487-1.263-2.508-3.063-2.831-4.987
					c-0.087-0.517-0.015-2.411-0.622-2.605c-0.114-0.037-0.77,0.317-0.916,0.361c-0.447,0.134-0.933,0.161-1.386,0.298
					c-1.859,0.563-3.536,1.741-4.658,3.331c-0.772,1.094-1.282,2.348-1.943,3.513C594.709,207.257,594.546,207.522,594.371,207.779z
					"/>
				<path style="fill:#FFFFFF;" d="M607.127,226.414c-1.391,3.177-6.677,3.99-9.685,0.529"/>
				<path style="fill:none;stroke:#000000;stroke-linecap:round;stroke-linejoin:round;stroke-miterlimit:10;" d="M590.943,213.424"
					/>
				<path style="fill:none;stroke:#000000;stroke-linecap:round;stroke-linejoin:round;stroke-miterlimit:10;" d="M601.786,213.487
					c0.024,1.66,0.642,3.219,1.078,4.798c0.254,0.918,1.276,3.827-0.683,2.902"/>
			</g>
			<path style="fill:none;stroke:#000000;stroke-linecap:round;stroke-linejoin:round;stroke-miterlimit:10;" d="M551.335,293.889
				c1.523-0.996,2.43-2.672,3.385-4.221c1.833-2.974,4.052-5.71,6.584-8.116"/>
			<path style="fill:none;stroke:#000000;stroke-linecap:round;stroke-linejoin:round;stroke-miterlimit:10;" d="M550.299,327.413
				c0.997,6.694,4.731,12.809,5.286,19.554c0.26,3.164-0.422,6.759-3.034,8.563"/>
			<path style="fill:#BD6A75;" d="M660.405,285.188c3.3-7.863,6.255-18.561,14.337-23.008c3.739-2.058,8.198-2.244,12.465-2.174
				c2.432,0.039,5.048,0.212,6.947,1.732c2.058,1.647,2.743,4.459,3.012,7.081c0.641,6.269-0.378,12.547-1.679,18.667
				c-1.25,5.876-2.488,11.794-4.089,17.592c-1.504,5.442-3.702,10.389-5.595,15.652c-1.61,4.476-3.853,8.998-8.13,11.463
				c-6.025,3.473-12.745,3.924-18.554-0.515c-4.316-3.298-6.798-8.402-7.612-13.594c-1.724-10.995,3.391-19.773,7.53-29.636
				C659.492,287.361,659.948,286.274,660.405,285.188z"/>
			<path style="fill:none;stroke:#000000;stroke-linecap:round;stroke-linejoin:round;stroke-miterlimit:10;" d="M630.972,271.695
				c4.445,15.653,13.939,29.413,19.299,44.777c1.554,4.452,2.828,7.595,4.225,12.099"/>
			<path style="fill:#BD6A75;" d="M582.449,242.862c0.399-0.503,0.731-1.029,1.213-1.456c0.168-0.149,0.232-0.193,0.503-0.371
				c0.235-0.153,0.475-0.297,0.713-0.445c1.073-0.667,1.992-1.456,2.859-2.371c0.385-0.407,0.771-0.812,1.196-1.178
				c0.111-0.095,0.199-0.166,0.441-0.315c0.023-0.014,0.04-0.021,0.062-0.034c-0.36,0.214,4.597,5.877,5.033,6.362
				c1.852,2.06,3.691,4.181,4.908,6.692c-1.009,3.386-1.514,6.952-2.875,10.224c-0.781,1.877-2.22-0.874-2.888-1.676
				c-1.112-1.335-2.224-2.671-3.336-4.006c-1.566-1.88-3.132-3.761-4.639-5.688c-0.753-0.963-1.492-1.937-2.208-2.928
				c-0.229-0.317-0.981-1.726-1.592-2.114C582.051,243.334,582.256,243.105,582.449,242.862z"/>
			<path style="fill:#BD6A75;" d="M603.122,246.371c0.215-0.254,0.472-0.478,0.725-0.697c2.365-2.048,6.152-4.371,6.08-7.967
				c1.673,2.495,3.846,5.816,6.266,7.596c-1.098,0.26-1.602,1.487-2.092,2.503c-0.974,2.018-2.475,3.704-3.811,5.482
				c-1.275,1.696-1.934,3.641-3.083,5.346c-0.152,0.226-0.295,0.466-0.507,0.637c-0.212,0.171-0.517,0.26-0.761,0.138
				c-0.238-0.119-0.349-0.395-0.42-0.652c-0.277-0.997-0.066-1.933-0.399-2.898c-0.402-1.163-0.84-2.313-1.229-3.48
				c-0.484-1.451-1.813-3.985-1.121-5.468C602.86,246.713,602.982,246.536,603.122,246.371z"/>
			<path style="fill:none;stroke:#000000;stroke-linecap:round;stroke-linejoin:round;stroke-miterlimit:10;" d="M597.497,257.013
				c-0.456,1.023-1.585,2.992-2.172,3.946c-3.172-3.952-6.344-7.904-9.515-11.855c-1.474-1.837-2.994-3.768-3.465-6.076"/>
			<path style="fill:none;stroke:#000000;stroke-linecap:round;stroke-linejoin:round;stroke-miterlimit:10;" d="M604.619,255.07
				c0.921,1.57,2.382,3.72,3.303,5.29c0.65-1.818,1.299-3.636,1.949-5.454c0.332-0.928,0.665-1.859,1.121-2.733
				c0.555-1.061,1.285-2.021,1.876-3.063c0.851-1.499,1.408-3.164,1.632-4.873"/>
			<path d="M613.046,290.263c0.114-0.407,0.32-0.759,0.617-1.059l0.486-0.375c0.374-0.217,0.778-0.326,1.211-0.328
				c0.33-0.013,0.638,0.056,0.924,0.207c0.297,0.097,0.555,0.262,0.772,0.496c0.234,0.217,0.399,0.475,0.496,0.772
				c0.15,0.286,0.219,0.594,0.207,0.924c-0.029,0.213-0.057,0.425-0.086,0.638c-0.114,0.406-0.32,0.759-0.617,1.059l-0.486,0.375
				c-0.374,0.217-0.778,0.326-1.211,0.328c-0.33,0.012-0.639-0.057-0.925-0.207c-0.298-0.097-0.555-0.262-0.772-0.496
				c-0.234-0.217-0.399-0.475-0.496-0.772c-0.15-0.286-0.219-0.594-0.207-0.925C612.989,290.688,613.017,290.475,613.046,290.263z"
				/>
			<path d="M615.56,307.829c0.119-0.425,0.334-0.794,0.645-1.106c0.169-0.131,0.338-0.262,0.508-0.392
				c0.391-0.227,0.813-0.341,1.266-0.342c0.345-0.013,0.667,0.059,0.966,0.216c0.311,0.101,0.58,0.274,0.807,0.519
				c0.244,0.227,0.417,0.496,0.518,0.807c0.157,0.299,0.229,0.621,0.216,0.966c-0.03,0.222-0.06,0.444-0.09,0.667
				c-0.119,0.425-0.334,0.794-0.645,1.107c-0.169,0.131-0.338,0.262-0.508,0.392c-0.391,0.227-0.813,0.341-1.266,0.342
				c-0.345,0.013-0.667-0.059-0.966-0.216c-0.311-0.101-0.58-0.274-0.807-0.518c-0.244-0.227-0.417-0.496-0.518-0.807
				c-0.157-0.299-0.229-0.621-0.216-0.966C615.5,308.274,615.53,308.052,615.56,307.829z"/>
			<path d="M618.868,325.164c0.124-0.442,0.347-0.825,0.67-1.15c0.176-0.136,0.352-0.272,0.528-0.408
				c0.407-0.236,0.845-0.354,1.316-0.356c0.359-0.014,0.694,0.061,1.004,0.224c0.323,0.105,0.603,0.285,0.839,0.539
				c0.254,0.236,0.434,0.516,0.539,0.839c0.163,0.311,0.238,0.646,0.225,1.005c-0.031,0.231-0.062,0.462-0.093,0.693
				c-0.124,0.442-0.347,0.825-0.67,1.15c-0.176,0.136-0.352,0.272-0.528,0.408c-0.407,0.236-0.845,0.354-1.316,0.356
				c-0.359,0.014-0.694-0.061-1.004-0.224c-0.323-0.105-0.603-0.285-0.839-0.539c-0.254-0.236-0.434-0.516-0.539-0.839
				c-0.163-0.311-0.238-0.645-0.224-1.004C618.806,325.625,618.837,325.395,618.868,325.164z"/>
			<path d="M622.403,343.759c3.245,0,3.251,5.044,0,5.044C619.158,348.802,619.152,343.759,622.403,343.759z"/>
			<path d="M621.99,365.441c0.043-0.157,0.107-0.313,0.191-0.468c0.409-0.748,1.31-1.204,2.153-1.121
				c2.066,0.204,2.63,3.085,0.84,4.088C623.455,368.904,621.507,367.18,621.99,365.441z"/>
			<path d="M510.617,295.141c-1.219,1.005-2.48,2.064-3.116,3.51c-0.636,1.446-0.428,3.396,0.89,4.267"/>
			<path d="M670.742,327.899c-0.168,1.108-1.258,1.93-2.376,2.012c-1.117,0.082-2.211-0.461-3.021-1.236"/>
			<path style="fill:none;stroke:#000000;stroke-linecap:round;stroke-linejoin:round;stroke-miterlimit:10;" d="M659.166,287.561
				c0.434,6.162,1.968,12.699,3.077,18.776"/>
			<path style="fill:none;stroke:#000000;stroke-linecap:round;stroke-linejoin:round;stroke-miterlimit:10;" d="M565.846,362.951
				c0.357,7.488-3.59,15.032-9.944,19.01c-2.143,1.342-4.513,2.293-6.652,3.642"/>
			<path style="fill:none;stroke:#000000;stroke-linecap:round;stroke-linejoin:round;stroke-miterlimit:10;" d="M651.335,352.576
				c0.145,1.541,0.504,3.066,1.106,4.493c1.6,3.79,4.86,6.709,8.537,8.555c2.132,1.07,4.424,1.82,6.776,2.214"/>
			<path style="fill:none;stroke:#000000;stroke-linecap:round;stroke-linejoin:round;stroke-miterlimit:10;" d="M590.929,474.404
				c1.029-3.794,1.553-7.724,1.554-11.655"/>
			<path style="fill:none;stroke:#000000;stroke-linecap:round;stroke-linejoin:round;stroke-miterlimit:10;" d="M633.922,468.188
				c-0.259-5.439-0.518-10.878-0.777-16.316"/>
			<path style="fill:none;stroke:#000000;stroke-linecap:round;stroke-linejoin:round;stroke-miterlimit:10;" d="M547.166,475.703
				c0.204-6.865,0.936-13.715,2.189-20.468"/>
		</g>
		<g style="clip-path:url(#SVGID_00000153671372299013790550000017959763938277349784_);">
			<g>
				<path style="fill:#D79280;" d="M267.907,460.695c0.932-0.131,1.295-1.262,1.459-2.189c0.296-1.672,0.591-3.343,0.887-5.015
					c0.11-0.621,0.436-1.413,1.061-1.33c0.598,0.079,0.737,0.871,0.725,1.474c-0.062,3.077-0.125,6.154-0.187,9.231
					c-0.017,0.861-0.015,1.79,0.491,2.487c0.506,0.697,1.721,0.913,2.184,0.187c0.178-0.28,0.206-0.627,0.228-0.958
					c0.133-1.971,0.266-3.942,0.399-5.916c0.058-0.889-0.292-5.193,1.181-4.971c1.307,0.198,0.752,4.141,0.699,5.021
					c-0.141,2.318-0.435,4.569-0.084,6.882c0.074,0.485,0.172,0.982,0.441,1.393c0.269,0.411,0.748,0.719,1.234,0.651
					c0.441-0.062,0.796-0.418,0.979-0.824s0.226-0.859,0.265-1.302c0.162-1.814,0.324-3.627,0.487-5.441
					c0.121-1.349-0.02-3.475,0.909-4.583c0.28-0.334,0.833-0.474,1.156-0.181c0.236,0.214,0.271,0.566,0.29,0.884
					c0.14,2.309,0.279,4.618,0.419,6.927c0.038,0.628,0.086,1.288,0.431,1.814c0.345,0.526,1.095,0.843,1.624,0.503
					c0.413-0.265,0.54-0.802,0.623-1.286c0.748-4.326,0.364-8.667,0.828-12.966c0.107-0.998,0.143-8.215,1.954-7.701
					c0.374,0.106,0.597,0.48,0.761,0.832c0.582,1.249,0.889,2.607,1.39,3.892c0.5,1.284,1.246,2.546,2.433,3.247
					c0.474,0.28,1.12,0.443,1.543,0.091c0.333-0.278,0.387-0.765,0.367-1.198c-0.072-1.498-0.738-2.893-1.18-4.326
					c-0.912-2.96-0.849-6.098-1.57-9.096c-0.71-2.953-1.798-5.669-1.504-8.783c0.474-5.015,2.065-9.853,2.903-14.82
					c0.838-4.967,0.85-10.338-1.622-14.727c-1.411-2.505-3.868-4.681-6.743-4.733c-2.83-0.051-5.331,1.967-6.875,4.339
					c-1.599,2.459-2.436,5.329-3.107,8.185c-2.011,8.562-2.709,17.355-4.354,25.984c-1.612,8.455-4.144,16.713-4.8,25.337
					c-0.05,0.657-0.087,1.34,0.16,1.951C266.638,460.273,267.255,460.786,267.907,460.695z"/>
				<path style="fill:#6C78CB;" d="M441.374,502.276c1.897,14.192,7.456,34.616-7.657,43.691c-6.198,3.722-13.834,4.21-21.025,3.472
					c-7.728-0.793-16.116-3.48-19.92-10.254c-1.762-3.139-2.316-6.791-2.84-10.352c-2.815-19.156-5.631-38.311-8.446-57.467
					c-1.732-11.782-0.803-37.403-11.082-44.413c2.547,42.199,6.929,84.546,9.887,126.788c-14.214,0.093-28.427,0.186-42.641,0.28
					c-1.611,0.01-3.373-0.03-4.659-1.07c-1.166-0.943-1.644-2.473-2.05-3.904c-12.953-45.572-20.166-92.531-21.407-139.363
					c-0.85-32.054,10.668-63.267,45.942-67.842c16.812-2.18,34.891,3.998,47.454,16.217c13.367,13.001,19.886,31.349,24.502,49.216
					c6.472,25.051,10.715,51.063,12.398,76.677C440.271,490.661,440.586,496.38,441.374,502.276z"/>
				<g>
					<path style="fill:none;stroke:#000000;stroke-linecap:round;stroke-linejoin:round;stroke-miterlimit:10;" d="M372.771,394.379
						c0.965,3.239,1.488,6.61,1.551,9.989c0.032,1.693-0.07,3.457-0.881,4.944c-0.811,1.487-2.512,2.608-4.168,2.253"/>
					<path style="fill:none;stroke:#000000;stroke-linecap:round;stroke-linejoin:round;stroke-miterlimit:10;" d="M366.581,388.976
						c1.321,11.238,3.574,26.622,4.896,37.86"/>
				</g>
				<path style="fill:#95A167;" d="M333.917,264.902c0.139-0.069,0.278-0.137,0.417-0.203c15.641-7.492,35.554-5.919,52.329-5.029
					c10.478,0.556,23.7,1.293,30.706,9.873c10.214,12.507,4.323,27.297,4.316,41.266c-0.01,19.744,0.196,38.923-2.789,58.544
					c-0.963,6.328-2.321,12.999-6.685,17.682c-5.453,5.852-14.131,7.112-22.106,7.738c-12.668,0.995-25.393,1.268-38.092,0.817
					c-8.263-0.294-16.701-0.937-24.294-4.21c-22.845-9.849-26.804-46.579-22.564-67.882c2.562-12.872,4.411-27.474,10.365-39.339
					C319.574,276.085,325.833,268.913,333.917,264.902z"/>
				<path style="fill:#95A167;" d="M338.474,294.499c0.924-7.341,0.66-14.753,0.759-22.136c0.042-3.017,0.168-6.038,0.01-9.047
					c-5.23,1.748-10.381,3.728-15.435,5.933c-4.432,1.934-8.84,4.073-12.542,7.184c-10.829,9.103-16.294,24.188-21.151,37.038
					c-10.603,28.049-17.407,58.13-22.922,87.594c-0.948,5.064-1.808,10.439,0.035,15.25c2.728,7.119,10.635,10.922,18.175,12.047
					c2.964,0.442,6.05,0.571,8.902-0.348c6.88-2.218,10.446-9.648,12.91-16.445c6.969-19.225,9.264-39.65,13.903-59.471
					C325.688,332.57,335.979,314.458,338.474,294.499z"/>
				<g>
					<g>
						<g>
							<g>
								<path d="M391.731,230.872c0.476-3.668-0.751-7.34-2.248-10.723c-1.288-2.911-2.829-5.779-5.122-7.987
									c-6.061-5.837-17.753-5.383-24.44-0.686c-4.681,3.288-9.338,5.59-6.471,12.023c1.036,2.324,2.749,4.284,4.66,5.952
									c2.91,2.542,6.412,4.594,10.099,5.777c2.581,0.828,4.697,2.784,7.458,3.11c1.899,0.224,3.812-0.159,5.737,0.025
									C386.726,238.868,390.965,236.776,391.731,230.872z"/>
								<path style="fill:#D79280;" d="M357.466,253.895c0.067,1.256,0.121,2.51,0.129,3.761c0.008,1.285,0.019,2.589-0.245,3.853
									c-0.135,0.648-0.342,1.286-0.669,1.863c-0.153,0.269-1.105,1.168-1.031,1.409c0.03,0.097,0.113,0.166,0.192,0.229
									c0.945,0.754,1.902,1.454,2.908,2.127c1.12,0.749,2.331,1.359,3.596,1.822c2.538,0.931,5.289,1.271,7.978,0.995
									c2.602-0.266,5.014-1.171,7.314-2.387c1.113-0.589,2.186-1.252,3.21-1.984c0.524-0.375,1.036-0.768,1.533-1.179
									c0.206-0.17,1.092-1.173,1.313-1.156c-0.828-0.064-1.549-1.557-1.865-2.222c-0.438-0.921-0.663-1.926-0.774-2.936
									c-0.225-2.045,0.007-4.101-0.029-6.151c-0.036-2.07-0.09-4.14-0.171-6.209c-0.041-1.035-0.088-2.069-0.143-3.103
									c-0.037-0.685,0.166-2.236-0.172-2.82c-1.934-3.34-7.038-5.686-10.423-6.372c-7.501-1.522-12.279,4.021-12.878,10.257
									c-0.029,0.413-0.05,0.827-0.065,1.24c-0.004,0.644,0.034,1.29,0.12,1.933C357.629,249.35,357.534,251.577,357.466,253.895z"
									/>
								<g>
									<path style="fill:#B66754;" d="M380.839,247.898c-5.289,1.038-10.311,2.367-15.74,1.579
										c-1.711-0.249-5.664-1.332-7.949-2.634c0.026,3.295,0.357,6.603,0.431,9.893c6.332,1.027,12.853,1.621,18.265-1.613
										c2.454-1.467,5.161-4.354,4.987-7.039L380.839,247.898z"/>
								</g>
								<path style="fill:#D79280;" d="M352.159,235.898c0.287,3.723,0.957,7.466,2.544,10.841c1.587,3.375,4.162,6.373,7.53,7.935
									c6.17,2.863,13.896,0.201,18.341-4.973c4.445-5.174,6.064-12.288,6.119-19.13c0.039-4.831-0.688-9.839-3.29-13.897
									c-2.676-4.174-7.296-7.023-12.203-7.526c-5.036-0.516-12.191,1.746-15.152,6.22
									C352.23,221.131,351.644,229.213,352.159,235.898z"/>
								<path style="fill:#D79280;" d="M391.834,234.824c-0.002,2.702-2.191,4.89-4.89,4.889c-2.699-0.002-4.886-2.193-4.884-4.895
									c0.002-2.702,2.191-4.89,4.891-4.889C389.649,229.93,391.836,232.122,391.834,234.824z"/>
								<path style="fill:#D79280;" d="M357.301,236.205c-0.002,2.702-2.191,4.89-4.89,4.889c-2.699-0.002-4.886-2.193-4.884-4.895
									c0.002-2.702,2.191-4.89,4.891-4.889C355.116,231.312,357.303,233.503,357.301,236.205z"/>
								<path style="fill:none;stroke:#000000;stroke-linecap:round;stroke-linejoin:round;stroke-miterlimit:10;" d="
									M388.509,232.09c-1.279-0.378-2.703,0.487-3.24,1.716c-0.538,1.229-0.32,2.687,0.272,3.89"/>
								<path d="M349.824,236.648c-0.635,0.048-1.68-0.535-2.102-0.949c-0.612-0.601-0.458-1.485-0.392-2.404
									c0.148-2.055,0.653-4.102,0.4-6.171c-0.216-1.771-0.983-3.486-0.853-5.265c0.13-1.794,1.149-3.381,1.795-5.06
									c0.642-1.671,0.933-3.495,1.866-5.024c1.355-2.221,3.866-3.479,6.372-4.178c2.506-0.699,5.127-0.954,7.599-1.768
									c1.797-0.591,3.643-1.487,5.491-1.082c1.019,0.223,1.91,0.825,2.75,1.444c2.084,1.537,3.338,3.123,4.195,5.539
									c0.946,2.666,0.181,5.921-1.999,7.708c-2.438,1.999-5.938,3.122-8.965,3.749c-2.699,0.559-5.492,0.979-7.899,2.33
									c-2.737,1.536-4.757,4.201-5.851,7.159C351.765,233.934,351.262,236.539,349.824,236.648z"/>
								<path d="M379.326,219.466c0.676,1.19,0.901,2.528,1.544,3.74c0.764,1.438,1.455,2.958,1.792,4.559
									c0.097,0.462,0.24,0.908,0.214,1.387c-0.026,0.487-0.152,0.966-0.133,1.456c0.014,0.359,0.152,0.764,0.488,0.89
									c0.342,0.129,0.708-0.088,1.013-0.288c1.026-0.673,2.175-1.283,3.401-1.245c0.652,0.02,1.294,0.224,1.946,0.191
									c1.968-0.097,1.653-2.315,1.826-3.687c0.072-0.57,0.272-1.117,0.365-1.685c0.201-1.232-0.116-2.483-0.43-3.691
									c-0.315-1.214-0.638-2.445-1.277-3.524c-0.61-1.03-1.482-1.878-2.164-2.862c-0.791-1.142-1.312-2.446-2.011-3.646
									c-0.7-1.2-1.642-2.341-2.939-2.839c-0.582-0.224-1.206-0.306-1.824-0.388c-3.632-0.477-7.433-1.552-11.062-0.596
									c-1.132,0.298-2.417,0.808-3.044,1.867c-0.297,0.501-0.397,1.054-0.358,1.631c0.02,0.3,0.423,2.174,0.766,2.174
									c0.148,0.258,0.331,0.505,0.581,0.665c0.375,0.239,0.844,0.249,1.287,0.274c3.649,0.208,7.181,2.014,9.5,4.859
									C379.008,218.953,379.18,219.207,379.326,219.466z"/>
								<path style="fill:none;stroke:#000000;stroke-linecap:round;stroke-linejoin:round;stroke-miterlimit:10;" d="
									M366.692,231.792c0.216,0.5,0.161,1.081-0.017,1.596c-0.177,0.515-0.467,0.982-0.726,1.461
									c-0.299,0.555-0.559,1.133-0.774,1.726c-0.589,1.619-0.105,3.077,1.594,3.638"/>
							</g>
						</g>
					</g>
					<path style="fill:none;stroke:#000000;stroke-linecap:round;stroke-linejoin:round;stroke-miterlimit:10;" d="M370.889,245.081
						c-0.004-0.087,0.104,0.048,0.053,0.118c-1.043,1.435-2.872,2.257-4.638,2.084s-3.401-1.334-4.146-2.943"/>
				</g>
				<path style="fill:#95A167;" d="M454.899,326.596c3.678,10.785,5.371,19.822-0.471,30.326
					c-3.017,5.424-8.286,9.955-14.466,10.531c-5.905,0.55-11.696-2.602-15.63-7.04c-5.349-6.033-8.052-14.347-10.964-21.721
					c-3.337-8.45-6.965-16.781-10.549-25.128c-5.676-13.218-12.879-29.263-9.479-44.014c3.116-13.517,19.967-6.37,27.437-0.246
					c6.764,5.545,11.488,13.158,15.629,20.862c4.337,8.068,7.583,16.807,12.664,24.429
					C451.484,318.217,453.437,322.309,454.899,326.596z"/>
				<path style="fill:none;stroke:#000000;stroke-linecap:round;stroke-linejoin:round;stroke-miterlimit:10;" d="M420.177,353.576
					c-5.946-17.22-10.66-34.866-14.093-52.758"/>
				<path style="fill:none;stroke:#000000;stroke-linecap:round;stroke-linejoin:round;stroke-miterlimit:10;" d="M315.362,381.944
					c9.324-37.295,9.455-58.306,18.609-81.784"/>
				<path style="fill:#D79280;" d="M491.229,260.959c-0.846-0.412-1.779,0.324-2.432,1.001c-1.178,1.222-2.357,2.444-3.535,3.666
					c-0.437,0.454-1.151,0.928-1.623,0.511c-0.452-0.399-0.125-1.135,0.221-1.628c1.77-2.518,3.54-5.036,5.309-7.554
					c0.495-0.704,1.011-1.477,0.981-2.337c-0.031-0.86-0.918-1.718-1.708-1.374c-0.304,0.133-0.521,0.405-0.724,0.668
					c-1.211,1.561-2.421,3.122-3.634,4.685c-0.545,0.705-2.657,4.472-3.755,3.464c-0.974-0.894,1.688-3.855,2.223-4.555
					c1.411-1.845,2.912-3.547,3.912-5.663c0.21-0.444,0.406-0.911,0.412-1.402c0.006-0.491-0.219-1.014-0.66-1.229
					c-0.4-0.195-0.894-0.097-1.272,0.137c-0.379,0.234-0.667,0.587-0.947,0.932c-1.147,1.414-2.294,2.828-3.441,4.242
					c-0.853,1.052-1.924,2.894-3.313,3.294c-0.419,0.121-0.956-0.072-1.06-0.495c-0.076-0.309,0.092-0.621,0.253-0.896
					c1.173-1.994,2.346-3.987,3.52-5.981c0.319-0.542,0.648-1.117,0.655-1.746c0.007-0.629-0.438-1.31-1.067-1.324
					c-0.491-0.01-0.895,0.364-1.235,0.719c-3.036,3.172-5.141,6.987-7.925,10.294c-0.942,1.119-5.055,7.756-6.584,4.118
					c-1.224-2.915,0.946-6.195-1.823-8.713c-0.495-0.45-1.279-0.657-1.843-0.297c-0.685,0.437-0.719,1.417-0.599,2.22
					c0.266,1.788-0.607,3.2-0.916,4.97c-1.94,11.112-5.102,22.003-9.25,32.516c5.976,4.443,11.907,8.957,17.935,13.331
					c0.745-9.67,1.486-20.337,8.592-26.862c5.253-4.824,10.626-9.687,15.059-15.303c0.408-0.517,0.82-1.063,0.956-1.708
					C492.046,262.017,491.821,261.247,491.229,260.959z"/>
				<path style="fill:#95A167;" d="M449.86,286.688c-1.829,0.846-3.377,2.439-4.727,4.002
					c-12.087,13.992-18.693,36.402-19.206,54.788c-0.141,5.077,0.331,10.331,2.7,14.824c2.37,4.493,6.974,8.077,12.053,8.037
					c2.271-0.018,4.491-0.74,6.521-1.758c16.456-8.251,19.848-30.404,23.401-46.34c1.286-5.77,2.36-11.837,0.769-17.53
					c-1.968-7.04-7.853-12.492-14.519-15.492c-1.491-0.671-3.089-1.248-4.721-1.133C451.329,286.142,450.573,286.358,449.86,286.688
					z"/>
				<path style="fill:none;stroke:#000000;stroke-linecap:round;stroke-linejoin:round;stroke-miterlimit:10;" d="M328.377,394.038
					c-1.477,3.714-3.648,7.203-6.644,9.849c-2.996,2.646-6.857,4.403-10.853,4.493"/>
				<path d="M376.333,191.161c2.903,0.585,5.428,2.778,6.414,5.57c2.887,8.178-8.124,16.216-14.979,11.095
					c-3.351-2.503-7.187-7.226-4.208-11.117C366.256,193.187,371.884,190.265,376.333,191.161z"/>
				<path style="fill:none;stroke:#1A2732;stroke-linecap:round;stroke-linejoin:round;stroke-miterlimit:10;" d="M354.218,262.697
					c3.007,5.047,9.182,7.747,15.044,7.363c5.862-0.384,11.321-3.535,15.303-7.854"/>
			</g>
			<path style="fill:none;stroke:#000000;stroke-linecap:round;stroke-linejoin:round;stroke-miterlimit:10;" d="M440.196,297.34
				c-5.196,12.847-9.411,22.747-9.324,36.604"/>
			<path style="fill:none;stroke:#000000;stroke-linecap:round;stroke-linejoin:round;stroke-miterlimit:10;" d="M476.307,257.117
				c1.575,1.93,3.149,3.861,4.724,5.791c0.955,1.171,1.971,2.577,1.636,4.05"/>
			<path style="fill:none;stroke:#000000;stroke-linecap:round;stroke-linejoin:round;stroke-miterlimit:10;" d="M464.732,263.495
				c0.236,1.38,0.472,2.761,0.708,4.141"/>
			<path style="fill:none;stroke:#000000;stroke-linecap:round;stroke-linejoin:round;stroke-miterlimit:10;" d="M405.58,393.519
				c5.63,5.329,13.395,8.335,21.145,8.185"/>
			<g>
				<path style="fill:#D9C468;" d="M366.228,312.587c-3.933-3.277-8.122-6.236-12.544-8.817c-1.671-0.975-3.183,1.616-1.514,2.59
					c4.201,2.452,8.2,5.234,11.937,8.348c0.622,0.518,1.512,0.609,2.121,0C366.761,314.176,366.853,313.108,366.228,312.587z"/>
				<path style="fill:#D9C468;" d="M387.745,335.066c-0.733-0.387-1.613-0.176-2.052,0.538c-1.381,2.245-2.763,4.489-4.144,6.734
					c-0.412,0.669-0.167,1.68,0.538,2.052c0.733,0.387,1.613,0.176,2.052-0.538c1.381-2.245,2.763-4.489,4.144-6.734
					C388.695,336.449,388.45,335.438,387.745,335.066z"/>
				<path style="fill:#D9C468;" d="M348.996,337.41c-0.087-0.805-0.627-1.5-1.5-1.5c-0.743,0-1.588,0.689-1.5,1.5
					c0.373,3.45,0.745,6.901,1.118,10.351c0.087,0.805,0.627,1.5,1.5,1.5c0.743,0,1.588-0.689,1.5-1.5
					C349.741,344.311,349.369,340.861,348.996,337.41z"/>
				<path style="fill:#D9C468;" d="M367.715,373.257c-0.255-0.788-1.029-1.252-1.845-1.048c-2.072,0.518-4.144,1.036-6.216,1.554
					c-0.762,0.19-1.293,1.087-1.048,1.845c0.255,0.789,1.029,1.252,1.845,1.048c2.072-0.518,4.144-1.036,6.216-1.554
					C367.428,374.912,367.96,374.015,367.715,373.257z"/>
				<path style="fill:#D9C468;" d="M402.42,369.113c-0.863-2.763-1.727-5.525-2.59-8.288c-0.234-0.748-1.056-1.303-1.845-1.048
					c-0.752,0.243-1.298,1.043-1.048,1.845c0.863,2.763,1.727,5.525,2.59,8.288c0.234,0.748,1.056,1.303,1.845,1.048
					C402.124,370.715,402.67,369.915,402.42,369.113z"/>
				<path style="fill:#D9C468;" d="M385.331,300.219c-1.299-3.179-2.2-6.602-2.554-9.958c-0.085-0.805-0.628-1.5-1.5-1.5
					c-0.745,0-1.586,0.689-1.5,1.5c0.391,3.699,1.253,7.31,2.662,10.755c0.306,0.749,0.997,1.281,1.845,1.048
					C384.993,301.87,385.639,300.974,385.331,300.219z"/>
				<path style="fill:#D9C468;" d="M406.868,275.47c-0.753-0.398-1.588-0.161-2.052,0.538c-1.033,1.556-2.066,3.112-3.098,4.668
					c-0.435,0.655-0.15,1.689,0.538,2.052c0.753,0.398,1.588,0.161,2.052-0.538c1.033-1.556,2.065-3.112,3.098-4.668
					C407.841,276.866,407.556,275.833,406.868,275.47z"/>
				<path style="fill:#D9C468;" d="M436.994,354.169c-0.76-0.496-1.505-1.014-2.231-1.559c-0.095-0.071-0.19-0.143-0.285-0.216
					c-0.018-0.014-0.037-0.029-0.054-0.042c-0.174-0.136-0.347-0.273-0.518-0.412c-0.362-0.293-0.719-0.592-1.071-0.898
					c-1.371-1.19-2.658-2.473-3.859-3.835c-0.521-0.59-1.597-0.572-2.121,0c-0.578,0.63-0.555,1.492,0,2.121
					c2.519,2.856,5.435,5.35,8.625,7.43c0.659,0.43,1.687,0.154,2.052-0.538C437.927,355.473,437.697,354.627,436.994,354.169z"/>
				<path style="fill:#D9C468;" d="M460.515,325.585c-0.754-3.397-2.08-6.674-3.888-9.646c-0.408-0.67-1.363-0.982-2.052-0.538
					c-0.673,0.434-0.975,1.335-0.538,2.052c1.724,2.834,2.86,5.662,3.586,8.929c0.17,0.767,1.101,1.289,1.845,1.048
					C460.272,327.169,460.697,326.407,460.515,325.585z"/>
				<path style="fill:#D9C468;" d="M428.704,297.815c-0.368-0.63-1.407-1.036-2.052-0.538c-3.815,2.944-7.139,6.389-9.919,10.329
					c-0.467,0.662-0.119,1.668,0.538,2.052c0.75,0.439,1.584,0.126,2.052-0.538c1.227-1.739,2.554-3.348,4.085-4.947
					c0.745-0.778,1.519-1.529,2.318-2.252c0.421-0.38,0.849-0.753,1.283-1.117c0.362-0.303,0.896-0.736,1.156-0.937
					C428.806,299.373,429.15,298.578,428.704,297.815z"/>
				<path style="fill:#D9C468;" d="M335.966,278.626c-0.218-0.339-0.512-0.561-0.897-0.689c-1.036-0.345-2.072-0.691-3.108-1.036
					c-0.358-0.119-0.837-0.035-1.156,0.151c-0.311,0.182-0.608,0.539-0.689,0.896c-0.087,0.384-0.068,0.815,0.151,1.156
					c0.218,0.339,0.512,0.561,0.896,0.69c1.036,0.345,2.072,0.691,3.108,1.036c0.358,0.119,0.837,0.035,1.156-0.151
					c0.311-0.182,0.608-0.539,0.689-0.896C336.205,279.397,336.186,278.967,335.966,278.626z"/>
				<path style="fill:#D9C468;" d="M359.046,277.29c-0.551-0.506-1.589-0.647-2.121,0c-2.417,2.935-4.834,5.87-7.252,8.806
					c-0.498,0.605-0.636,1.537,0,2.121c0.551,0.506,1.589,0.647,2.121,0c2.417-2.935,4.834-5.871,7.252-8.806
					C359.544,278.806,359.682,277.874,359.046,277.29z"/>
				<path style="fill:#D9C468;" d="M309.782,298.642c-0.895-2.863-1.302-5.435-1.332-8.379c-0.008-0.784-0.684-1.537-1.5-1.5
					c-0.806,0.036-1.509,0.659-1.5,1.5c0.032,3.105,0.513,6.213,1.44,9.176c0.234,0.748,1.056,1.303,1.845,1.048
					C309.486,300.243,310.033,299.444,309.782,298.642z"/>
				<path style="fill:#D9C468;" d="M320.427,310.741c-0.206-0.32-0.514-0.602-0.896-0.69c-0.368-0.084-0.84-0.085-1.156,0.151
					c-0.889,0.664-1.741,1.371-2.526,2.156c-0.785,0.785-1.492,1.637-2.156,2.526c-0.218,0.291-0.243,0.822-0.151,1.156
					c0.096,0.348,0.365,0.725,0.689,0.896c0.348,0.184,0.77,0.276,1.156,0.151c0.395-0.128,0.65-0.359,0.896-0.689
					c0.011-0.015,0.023-0.031,0.035-0.046c1.028-1.314,2.212-2.497,3.525-3.525c0.015-0.012,0.03-0.023,0.046-0.035
					c0.325-0.243,0.577-0.49,0.689-0.896C320.677,311.538,320.632,311.059,320.427,310.741z"/>
				<path style="fill:#D9C468;" d="M307.111,340.106c-0.112-0.345-0.34-0.747-0.689-0.896c-1.209-0.518-2.417-1.036-3.626-1.554
					c-0.172-0.11-0.358-0.169-0.558-0.178c-0.199-0.045-0.399-0.036-0.598,0.027c-0.348,0.096-0.725,0.365-0.897,0.689
					c-0.184,0.348-0.276,0.77-0.151,1.156c0.112,0.345,0.34,0.747,0.689,0.896c1.209,0.518,2.417,1.036,3.626,1.554
					c0.172,0.11,0.358,0.169,0.558,0.178c0.199,0.045,0.399,0.036,0.598-0.027c0.348-0.096,0.725-0.365,0.896-0.69
					C307.143,340.914,307.235,340.492,307.111,340.106z"/>
				<path style="fill:#D9C468;" d="M311.048,361.983c-0.671-0.393-1.681-0.185-2.052,0.538c-1.791,3.488-2.871,7.238-3.244,11.138
					c-0.077,0.808,0.745,1.5,1.5,1.5c0.875,0,1.422-0.69,1.5-1.5c0.313-3.273,1.311-6.655,2.835-9.624
					C311.956,363.315,311.774,362.407,311.048,361.983z"/>
				<path style="fill:#D9C468;" d="M289.995,378.466c-3.454-0.861-6.908-1.722-10.361-2.583c-0.785-0.196-1.627,0.253-1.845,1.048
					c-0.211,0.768,0.258,1.648,1.048,1.845c3.454,0.861,6.908,1.722,10.361,2.583c0.785,0.196,1.627-0.253,1.845-1.048
					C291.254,379.543,290.784,378.663,289.995,378.466z"/>
				<path style="fill:#D9C468;" d="M280.747,402.145c-0.037-0.406-0.143-0.764-0.439-1.061c-0.26-0.26-0.687-0.456-1.061-0.439
					c-0.752,0.034-1.576,0.663-1.5,1.5c0.173,1.899,0.345,3.799,0.518,5.698c0.037,0.406,0.142,0.764,0.439,1.061
					c0.26,0.26,0.687,0.456,1.061,0.439c0.752-0.034,1.576-0.663,1.5-1.5C281.092,405.944,280.919,404.044,280.747,402.145z"/>
				<path style="fill:#D9C468;" d="M296.739,403.807c-0.846-0.193-1.558,0.257-1.845,1.048c-0.691,1.899-1.381,3.799-2.072,5.698
					c-0.269,0.739,0.301,1.675,1.048,1.845c0.846,0.193,1.558-0.257,1.845-1.048c0.691-1.899,1.381-3.799,2.072-5.698
					C298.055,404.913,297.486,403.977,296.739,403.807z"/>
				<path style="fill:#D9C468;" d="M336.117,377.401c-0.863-2.417-1.727-4.835-2.59-7.252c-0.263-0.737-1.034-1.31-1.845-1.048
					c-0.726,0.235-1.33,1.054-1.048,1.845c0.863,2.417,1.727,4.835,2.59,7.252c0.263,0.737,1.034,1.31,1.845,1.048
					C335.796,379.011,336.4,378.192,336.117,377.401z"/>
				<path style="fill:#D9C468;" d="M450.291,337.899c-0.077-0.779-0.635-1.539-1.5-1.5c-0.746,0.033-1.583,0.664-1.5,1.5
					c0.325,3.283,0.649,6.565,0.974,9.848c0.077,0.778,0.635,1.539,1.5,1.5c0.747-0.034,1.583-0.664,1.5-1.5
					C450.94,344.464,450.616,341.181,450.291,337.899z"/>
				<path style="fill:#D9C468;" d="M454.718,297.543c-0.264-0.818-1.02-1.214-1.845-1.048c-3.144,0.635-6.181,1.613-9.134,2.86
					c-0.726,0.306-0.938,1.432-0.538,2.052c0.487,0.755,1.276,0.866,2.052,0.538c-0.106,0.045-0.074,0.032,0.096-0.039
					c0.101-0.042,0.203-0.083,0.304-0.124c0.152-0.061,0.305-0.122,0.458-0.182c0.357-0.139,0.716-0.274,1.077-0.404
					c0.695-0.251,1.397-0.485,2.104-0.702c1.44-0.442,2.902-0.809,4.378-1.107C454.441,299.233,454.956,298.277,454.718,297.543z"/>
			</g>
			<g>
				<defs>
					<path id="SVGID_00000075158674500083042430000009380860674682249646_" d="M338.474,294.499
						c0.924-7.341,0.66-14.753,0.759-22.136c0.042-3.017,0.168-6.038,0.01-9.047c-5.23,1.748-10.381,3.728-15.435,5.933
						c-4.432,1.934-8.84,4.073-12.542,7.184c-10.829,9.103-16.294,24.188-21.151,37.038c-10.603,28.049-17.407,58.13-22.922,87.594
						c-0.948,5.064-1.808,10.439,0.035,15.25c2.728,7.119,10.635,10.922,18.175,12.047c2.964,0.442,6.05,0.571,8.902-0.348
						c6.88-2.218,10.446-9.648,12.91-16.445c6.969-19.225,9.264-39.65,13.903-59.471
						C325.688,332.57,335.979,314.458,338.474,294.499z"/>
				</defs>
				<clipPath id="SVGID_00000154411164705006490890000002184606611052808582_">
					<use xlink:href="#SVGID_00000075158674500083042430000009380860674682249646_"  style="overflow:visible;"/>
				</clipPath>
				<path style="clip-path:url(#SVGID_00000154411164705006490890000002184606611052808582_);" d="M279.796,330.66
					c1.905-1.906,5.209-2.193,7.414-0.643c2.205,1.55,3.054,4.756,1.905,7.193c-1.142,2.425-4.006,4.32-3.588,6.968
					c0.288,1.823,2.073,3.015,2.827,4.699c1.363,3.045-0.929,6.344-2.15,9.449c-0.37,0.94-0.648,1.925-1.169,2.79
					c-1.492,2.477-4.654,3.44-7.546,3.435c-2.892-0.005-5.74-0.764-8.631-0.811c-2.891-0.046-6.063,0.816-7.659,3.227"/>
			</g>
		</g>
	</g>
</g>
</svg>
